<svg xmlns="http://www.w3.org/2000/svg" viewBox="0 0 630.37 335.63"><defs><style>.cls-1{fill:#fff;}.cls-2{fill:#ccc;}</style></defs><title>Leftlabels_1</title><g id="Layer_2" data-name="Layer 2"><g id="Layer_1-2" data-name="Layer 1"><path d="M2.54,12.5H1.37V2.5H6.95v1H2.54V7.19H6.68v1H2.54Z"/><path d="M8.33,3a.75.75,0,0,1,.19-.57.71.71,0,0,1,1,0,.74.74,0,0,1,.2.57.75.75,0,0,1-.2.57.7.7,0,0,1-1,0A.77.77,0,0,1,8.33,3ZM9.56,12.5H8.43V5H9.56Z"/><path d="M15.39,4.87a4.43,4.43,0,0,1,.9.08L16.13,6a3.86,3.86,0,0,0-.82-.1,2,2,0,0,0-1.55.74,2.69,2.69,0,0,0-.65,1.84v4H12V5h.94L13,6.39h.05a3.31,3.31,0,0,1,1-1.13A2.27,2.27,0,0,1,15.39,4.87Z"/><path d="M22.52,10.45a1.88,1.88,0,0,1-.78,1.61,3.66,3.66,0,0,1-2.19.57,4.76,4.76,0,0,1-2.32-.47V11.11a5.58,5.58,0,0,0,1.16.43,4.8,4.8,0,0,0,1.19.16,2.71,2.71,0,0,0,1.37-.28A1,1,0,0,0,21,9.8a6,6,0,0,0-1.48-.74,8,8,0,0,1-1.49-.68,2,2,0,0,1-.66-.66,1.72,1.72,0,0,1-.22-.88A1.68,1.68,0,0,1,18,5.4a3.47,3.47,0,0,1,2-.53,6,6,0,0,1,2.37.49l-.4.92a5.43,5.43,0,0,0-2-.46,2.36,2.36,0,0,0-1.22.25.78.78,0,0,0-.41.7.85.85,0,0,0,.15.51,1.51,1.51,0,0,0,.5.4,11.06,11.06,0,0,0,1.31.55,4.92,4.92,0,0,1,1.8,1A1.73,1.73,0,0,1,22.52,10.45Z"/><path d="M26.78,11.7a3.74,3.74,0,0,0,.58,0l.44-.09v.87a2.07,2.07,0,0,1-.54.15,4.16,4.16,0,0,1-.65.06q-2.17,0-2.17-2.29V5.89H23.37V5.34l1.07-.47.48-1.6h.66V5h2.17v.88H25.58V10.3a1.52,1.52,0,0,0,.32,1A1.12,1.12,0,0,0,26.78,11.7Z"/><path d="M38.07,12.5V7.65a2,2,0,0,0-.42-1.37,1.7,1.7,0,0,0-1.31-.45,2.16,2.16,0,0,0-1.72.64,3.21,3.21,0,0,0-.55,2.1V12.5H32.94V5h.92L34,6h.05a2.31,2.31,0,0,1,1-.86,3.17,3.17,0,0,1,1.4-.3,2.84,2.84,0,0,1,2,.65,2.77,2.77,0,0,1,.68,2.09V12.5Z"/><path d="M46.14,12.5l-.23-1.07h-.05a3.15,3.15,0,0,1-1.12,1,3.42,3.42,0,0,1-1.39.25,2.5,2.5,0,0,1-1.75-.57A2.09,2.09,0,0,1,41,10.43Q41,8.16,44.6,8l1.27,0V7.54a1.9,1.9,0,0,0-.38-1.3,1.56,1.56,0,0,0-1.21-.42,5,5,0,0,0-2.12.57l-.35-.87A5.35,5.35,0,0,1,43,5.05a5.28,5.28,0,0,1,1.32-.17,2.85,2.85,0,0,1,2,.59A2.48,2.48,0,0,1,47,7.38V12.5Zm-2.56-.8a2.3,2.3,0,0,0,1.67-.58,2.15,2.15,0,0,0,.6-1.63V8.81l-1.13,0a4.12,4.12,0,0,0-2,.42,1.27,1.27,0,0,0-.6,1.16,1.17,1.17,0,0,0,.37.94A1.54,1.54,0,0,0,43.58,11.7Z"/><path d="M58.87,12.5V7.62a2,2,0,0,0-.38-1.34,1.48,1.48,0,0,0-1.19-.45,1.92,1.92,0,0,0-1.57.61,2.9,2.9,0,0,0-.51,1.87V12.5H54.09V7.62a2,2,0,0,0-.38-1.34,1.49,1.49,0,0,0-1.2-.45A1.85,1.85,0,0,0,51,6.47a3.45,3.45,0,0,0-.5,2.09V12.5H49.32V5h.92l.18,1h.05a2.24,2.24,0,0,1,.91-.85,2.77,2.77,0,0,1,1.31-.31A2.22,2.22,0,0,1,55,6.14H55a2.4,2.4,0,0,1,1-.93,3,3,0,0,1,1.45-.34,2.54,2.54,0,0,1,1.9.65A2.92,2.92,0,0,1,60,7.61V12.5Z"/><path d="M65.51,12.63a3.44,3.44,0,0,1-2.62-1,3.91,3.91,0,0,1-1-2.81,4.35,4.35,0,0,1,.89-2.88,3,3,0,0,1,2.4-1.07,2.82,2.82,0,0,1,2.23.93,3.55,3.55,0,0,1,.82,2.44V9H63.1a3,3,0,0,0,.67,2,2.3,2.3,0,0,0,1.78.68,6,6,0,0,0,2.39-.51v1a6,6,0,0,1-1.14.37A6.41,6.41,0,0,1,65.51,12.63ZM65.2,5.82a1.85,1.85,0,0,0-1.44.59A2.71,2.71,0,0,0,63.13,8H67a2.49,2.49,0,0,0-.48-1.64A1.68,1.68,0,0,0,65.2,5.82Z"/><rect class="cls-1" x="220" y="0.5" width="285" height="36"/><path class="cls-2" d="M505.5,37h-286V0h286Zm-285-1h284V1h-284Z"/><path d="M5.65,202.49a3.27,3.27,0,0,0-2.6,1.1,4.43,4.43,0,0,0-1,3,4.51,4.51,0,0,0,.92,3,3.27,3.27,0,0,0,2.62,1.07A8.94,8.94,0,0,0,8,210.31v1a7.35,7.35,0,0,1-2.56.39,4.34,4.34,0,0,1-3.41-1.34,5.52,5.52,0,0,1-1.2-3.81,6,6,0,0,1,.58-2.71,4.14,4.14,0,0,1,1.67-1.79,5,5,0,0,1,2.57-.63,6.19,6.19,0,0,1,2.75.57l-.49,1A5.3,5.3,0,0,0,5.65,202.49Z"/><path d="M9.94,202.06a.75.75,0,0,1,.19-.57.71.71,0,0,1,1,0,.74.74,0,0,1,.2.57.75.75,0,0,1-.2.57.66.66,0,0,1-.47.19.66.66,0,0,1-.48-.19A.77.77,0,0,1,9.94,202.06Zm1.23,9.52H10v-7.49h1.13Z"/><path d="M16,210.79a3.75,3.75,0,0,0,.58,0l.44-.09v.87a2,2,0,0,1-.54.15,4.15,4.15,0,0,1-.65.06q-2.17,0-2.17-2.29V205H12.59v-.55l1.07-.47.48-1.6h.66v1.74H17V205H14.79v4.41a1.52,1.52,0,0,0,.32,1A1.12,1.12,0,0,0,16,210.79Z"/><path d="M17.33,204.09h1.22l1.64,4.27a16.23,16.23,0,0,1,.67,2.11h.05c.06-.23.18-.63.37-1.19s.81-2.29,1.86-5.19h1.22l-3.22,8.53A4.25,4.25,0,0,1,20,214.42a2.38,2.38,0,0,1-1.57.53,4.59,4.59,0,0,1-1-.12v-.91a4,4,0,0,0,.84.08,1.73,1.73,0,0,0,1.67-1.31l.42-1.07Z"/><rect class="cls-1" x="220" y="199.59" width="285" height="36"/><path class="cls-2" d="M505.5,236.09h-286v-37h286Zm-285-1h284v-35h-284Z"/><path d="M7,258.7a2.45,2.45,0,0,1-1,2.06,4.15,4.15,0,0,1-2.6.74A6.5,6.5,0,0,1,.73,261v-1.12a7.11,7.11,0,0,0,1.34.41,7,7,0,0,0,1.44.15A2.9,2.9,0,0,0,5.25,260a1.45,1.45,0,0,0,.59-1.23,1.57,1.57,0,0,0-.21-.85,1.94,1.94,0,0,0-.7-.61,9.81,9.81,0,0,0-1.49-.64,4.74,4.74,0,0,1-2-1.18,2.61,2.61,0,0,1-.6-1.78,2.22,2.22,0,0,1,.87-1.84,3.61,3.61,0,0,1,2.3-.68,6.77,6.77,0,0,1,2.74.55l-.36,1A6.21,6.21,0,0,0,4,252.26a2.33,2.33,0,0,0-1.44.4,1.31,1.31,0,0,0-.52,1.1,1.69,1.69,0,0,0,.19.85,1.8,1.8,0,0,0,.65.61,8,8,0,0,0,1.39.61A5.52,5.52,0,0,1,6.42,257,2.37,2.37,0,0,1,7,258.7Z"/><path d="M11.31,260.56a3.75,3.75,0,0,0,.58,0l.44-.09v.87a2.07,2.07,0,0,1-.54.15,4.15,4.15,0,0,1-.65.06Q9,261.5,9,259.21v-4.46H7.9v-.55L9,253.73l.48-1.6h.66v1.74h2.17v.88H10.1v4.41a1.52,1.52,0,0,0,.32,1A1.12,1.12,0,0,0,11.31,260.56Z"/><path d="M18.44,261.36l-.23-1.07h-.05a3.16,3.16,0,0,1-1.12,1,3.41,3.41,0,0,1-1.39.25,2.5,2.5,0,0,1-1.75-.57,2.09,2.09,0,0,1-.63-1.63q0-2.27,3.63-2.38l1.27,0v-.46a1.9,1.9,0,0,0-.38-1.3,1.56,1.56,0,0,0-1.21-.42,4.94,4.94,0,0,0-2.12.57l-.35-.87a5.36,5.36,0,0,1,1.21-.47,5.29,5.29,0,0,1,1.32-.17,2.85,2.85,0,0,1,2,.59,2.48,2.48,0,0,1,.65,1.91v5.11Zm-2.56-.8a2.3,2.3,0,0,0,1.66-.58,2.15,2.15,0,0,0,.6-1.63v-.68l-1.13,0a4.12,4.12,0,0,0-2,.42,1.27,1.27,0,0,0-.6,1.16,1.17,1.17,0,0,0,.37.94A1.54,1.54,0,0,0,15.87,260.56Z"/><path d="M24,260.56a3.75,3.75,0,0,0,.58,0l.44-.09v.87a2.07,2.07,0,0,1-.54.15,4.15,4.15,0,0,1-.65.06q-2.17,0-2.17-2.29v-4.46H20.62v-.55l1.07-.47.48-1.6h.66v1.74H25v.88H22.83v4.41a1.52,1.52,0,0,0,.32,1A1.12,1.12,0,0,0,24,260.56Z"/><path d="M29.72,261.5a3.44,3.44,0,0,1-2.62-1,3.92,3.92,0,0,1-1-2.81A4.34,4.34,0,0,1,27,254.8a3,3,0,0,1,2.4-1.07,2.82,2.82,0,0,1,2.23.93,3.55,3.55,0,0,1,.82,2.44v.72H27.32a3,3,0,0,0,.67,2,2.3,2.3,0,0,0,1.78.68,6,6,0,0,0,2.39-.51v1a6,6,0,0,1-1.14.37A6.4,6.4,0,0,1,29.72,261.5Zm-.31-6.82a1.85,1.85,0,0,0-1.44.59,2.71,2.71,0,0,0-.63,1.63h3.92a2.49,2.49,0,0,0-.48-1.64A1.68,1.68,0,0,0,29.42,254.68Z"/><rect class="cls-1" x="220" y="249.36" width="100" height="36"/><path class="cls-2" d="M320.5,285.86h-101v-37h101Zm-100-1h99v-35h-99Z"/><path d="M7.43,311.13H.56v-.91l5.3-8H.72v-1H7.28V302l-5.3,8H7.43Z"/><path d="M9.1,301.61a.76.76,0,0,1,.19-.57.71.71,0,0,1,1,0,.74.74,0,0,1,.2.57.75.75,0,0,1-.2.57.7.7,0,0,1-1,0A.77.77,0,0,1,9.1,301.61Zm1.23,9.52H9.19v-7.49h1.13Z"/><path d="M16.22,311.27a3.25,3.25,0,0,1-1.34-.27,2.52,2.52,0,0,1-1-.83h-.08a10,10,0,0,1,.08,1.24v3.08H12.74V303.64h.92l.16,1h.05a2.64,2.64,0,0,1,1-.89,3.11,3.11,0,0,1,1.33-.27,2.77,2.77,0,0,1,2.3,1,5.43,5.43,0,0,1,0,5.72A2.77,2.77,0,0,1,16.22,311.27Zm-.16-6.8a2,2,0,0,0-1.66.63,3.28,3.28,0,0,0-.53,2v.25a3.75,3.75,0,0,0,.53,2.26,2,2,0,0,0,1.69.68,1.76,1.76,0,0,0,1.52-.79,3.73,3.73,0,0,0,.55-2.17,3.59,3.59,0,0,0-.55-2.15A1.81,1.81,0,0,0,16.06,304.47Z"/><rect class="cls-1" x="220" y="299.13" width="100" height="36"/><path class="cls-2" d="M320.5,335.63h-101v-37h101Zm-100-1h99v-35h-99Z"/><path d="M3.92,107l2.67-5H7.84l-3.34,6.12V112H3.33v-3.82L0,102H1.27Z"/><path d="M15.51,108.29a4.14,4.14,0,0,1-.92,2.86,3.25,3.25,0,0,1-2.55,1,3.38,3.38,0,0,1-1.78-.47,3.11,3.11,0,0,1-1.2-1.35,4.71,4.71,0,0,1-.42-2.06,4.12,4.12,0,0,1,.92-2.85,3.24,3.24,0,0,1,2.54-1,3.17,3.17,0,0,1,2.5,1A4.11,4.11,0,0,1,15.51,108.29Zm-5.71,0a3.56,3.56,0,0,0,.57,2.19,2,2,0,0,0,1.69.75,2,2,0,0,0,1.69-.75,3.54,3.54,0,0,0,.58-2.19,3.48,3.48,0,0,0-.58-2.17,2,2,0,0,0-1.71-.74,2,2,0,0,0-1.68.73A3.52,3.52,0,0,0,9.8,108.29Z"/><path d="M18.57,104.55v4.86a2,2,0,0,0,.42,1.37,1.7,1.7,0,0,0,1.31.45,2.13,2.13,0,0,0,1.72-.64,3.24,3.24,0,0,0,.54-2.1v-3.94h1.13V112h-.94l-.16-1h-.06a2.26,2.26,0,0,1-1,.85,3.26,3.26,0,0,1-1.41.29,2.86,2.86,0,0,1-2-.65,2.76,2.76,0,0,1-.68-2.08v-4.9Z"/><path d="M29.51,104.41a4.44,4.44,0,0,1,.9.08l-.16,1.05a3.87,3.87,0,0,0-.82-.1,2,2,0,0,0-1.56.74,2.69,2.69,0,0,0-.65,1.84v4H26.09v-7.49H27l.13,1.39h.05a3.29,3.29,0,0,1,1-1.13A2.26,2.26,0,0,1,29.51,104.41Z"/><path d="M38.93,112.18a3.23,3.23,0,0,1-1.34-.27,2.51,2.51,0,0,1-1-.83H36.5a10,10,0,0,1,.08,1.24v3.08H35.44V104.55h.92l.16,1h.05a2.64,2.64,0,0,1,1-.89,3.09,3.09,0,0,1,1.33-.27,2.77,2.77,0,0,1,2.3,1,5.42,5.42,0,0,1,0,5.72A2.77,2.77,0,0,1,38.93,112.18Zm-.16-6.8a2,2,0,0,0-1.66.64,3.27,3.27,0,0,0-.53,2v.25a3.75,3.75,0,0,0,.53,2.26,2,2,0,0,0,1.69.68,1.75,1.75,0,0,0,1.52-.79,3.73,3.73,0,0,0,.55-2.17,3.59,3.59,0,0,0-.55-2.15A1.81,1.81,0,0,0,38.77,105.38Z"/><path d="M49.15,112V107.2a2,2,0,0,0-.42-1.37,1.7,1.7,0,0,0-1.31-.45,2.14,2.14,0,0,0-1.73.64,3.25,3.25,0,0,0-.54,2.11V112H44V101.41h1.13v3.22a7,7,0,0,1-.05,1h.07a2.31,2.31,0,0,1,1-.85,3.09,3.09,0,0,1,1.41-.31,2.89,2.89,0,0,1,2.06.65,2.75,2.75,0,0,1,.69,2.07V112Z"/><path d="M59.08,108.29a4.14,4.14,0,0,1-.92,2.86,3.25,3.25,0,0,1-2.55,1,3.38,3.38,0,0,1-1.78-.47,3.11,3.11,0,0,1-1.2-1.35,4.71,4.71,0,0,1-.42-2.06,4.12,4.12,0,0,1,.92-2.85,3.24,3.24,0,0,1,2.54-1,3.17,3.17,0,0,1,2.5,1A4.11,4.11,0,0,1,59.08,108.29Zm-5.71,0a3.56,3.56,0,0,0,.57,2.19,2.28,2.28,0,0,0,3.38,0,3.54,3.54,0,0,0,.58-2.19,3.48,3.48,0,0,0-.58-2.17,2,2,0,0,0-1.71-.74,2,2,0,0,0-1.68.73A3.52,3.52,0,0,0,53.38,108.29Z"/><path d="M66.2,112V107.2a2,2,0,0,0-.42-1.37,1.7,1.7,0,0,0-1.31-.45,2.15,2.15,0,0,0-1.72.64,3.21,3.21,0,0,0-.55,2.1V112H61.07v-7.49H62l.18,1h.05a2.32,2.32,0,0,1,1-.86,3.18,3.18,0,0,1,1.4-.3,2.84,2.84,0,0,1,2,.65,2.78,2.78,0,0,1,.68,2.09V112Z"/><path d="M72.83,112.18a3.44,3.44,0,0,1-2.62-1,3.92,3.92,0,0,1-1-2.81,4.34,4.34,0,0,1,.89-2.88,3,3,0,0,1,2.4-1.07,2.82,2.82,0,0,1,2.23.93,3.55,3.55,0,0,1,.82,2.44v.72H70.42a3,3,0,0,0,.67,2,2.31,2.31,0,0,0,1.78.68,6,6,0,0,0,2.39-.51v1a6,6,0,0,1-1.14.37A6.47,6.47,0,0,1,72.83,112.18Zm-.31-6.82a1.85,1.85,0,0,0-1.44.59,2.71,2.71,0,0,0-.63,1.63h3.92a2.5,2.5,0,0,0-.48-1.64A1.69,1.69,0,0,0,72.52,105.36Z"/><path d="M86.28,112V107.2a2,2,0,0,0-.42-1.37,1.7,1.7,0,0,0-1.31-.45,2.15,2.15,0,0,0-1.72.64,3.21,3.21,0,0,0-.55,2.1V112H81.16v-7.49h.92l.18,1h.05a2.32,2.32,0,0,1,1-.86,3.18,3.18,0,0,1,1.4-.3,2.84,2.84,0,0,1,2,.65,2.78,2.78,0,0,1,.68,2.09V112Z"/><path d="M90.82,104.55v4.86a2,2,0,0,0,.42,1.37,1.7,1.7,0,0,0,1.31.45,2.13,2.13,0,0,0,1.72-.64,3.24,3.24,0,0,0,.54-2.1v-3.94h1.13V112H95l-.16-1h-.06a2.26,2.26,0,0,1-1,.85,3.26,3.26,0,0,1-1.41.29,2.86,2.86,0,0,1-2-.65,2.76,2.76,0,0,1-.68-2.08v-4.9Z"/><path d="M107.89,112v-4.87a2,2,0,0,0-.38-1.34,1.48,1.48,0,0,0-1.19-.45,1.92,1.92,0,0,0-1.57.61,2.89,2.89,0,0,0-.51,1.87V112h-1.13v-4.87a2,2,0,0,0-.38-1.34,1.49,1.49,0,0,0-1.2-.45A1.85,1.85,0,0,0,100,106a3.46,3.46,0,0,0-.5,2.1V112H98.34v-7.49h.92l.18,1h.05a2.23,2.23,0,0,1,.91-.85,2.77,2.77,0,0,1,1.31-.31,2.23,2.23,0,0,1,2.3,1.27h.05a2.39,2.39,0,0,1,1-.93,3,3,0,0,1,1.45-.34,2.54,2.54,0,0,1,1.9.65,2.92,2.92,0,0,1,.63,2.09V112Z"/><path d="M114.85,104.43a2.78,2.78,0,0,1,2.29,1,5.4,5.4,0,0,1,0,5.72,2.77,2.77,0,0,1-2.29,1,3.23,3.23,0,0,1-1.34-.27,2.51,2.51,0,0,1-1-.83h-.08l-.24,1h-.81V101.41h1.13V104q0,.87-.05,1.56h.05A2.69,2.69,0,0,1,114.85,104.43Zm-.16,1A2,2,0,0,0,113,106a5.14,5.14,0,0,0,0,4.51,2,2,0,0,0,1.69.68,1.75,1.75,0,0,0,1.56-.76,3.92,3.92,0,0,0,.51-2.19,3.77,3.77,0,0,0-.51-2.18A1.82,1.82,0,0,0,114.69,105.38Z"/><path d="M123.11,112.18a3.44,3.44,0,0,1-2.62-1,3.92,3.92,0,0,1-1-2.81,4.34,4.34,0,0,1,.89-2.88,3,3,0,0,1,2.4-1.07,2.82,2.82,0,0,1,2.23.93,3.55,3.55,0,0,1,.82,2.44v.72H120.7a3,3,0,0,0,.67,2,2.31,2.31,0,0,0,1.78.68,6,6,0,0,0,2.39-.51v1a6,6,0,0,1-1.14.37A6.47,6.47,0,0,1,123.11,112.18Zm-.31-6.82a1.85,1.85,0,0,0-1.44.59,2.71,2.71,0,0,0-.63,1.63h3.92a2.5,2.5,0,0,0-.48-1.64A1.69,1.69,0,0,0,122.8,105.36Z"/><path d="M131.22,104.41a4.44,4.44,0,0,1,.9.08l-.16,1.05a3.87,3.87,0,0,0-.82-.1,2,2,0,0,0-1.56.74,2.69,2.69,0,0,0-.65,1.84v4H127.8v-7.49h.94l.13,1.39h.05a3.29,3.29,0,0,1,1-1.13A2.26,2.26,0,0,1,131.22,104.41Z"/><rect class="cls-1" x="220" y="50.27" width="285" height="36"/><path class="cls-2" d="M505.5,86.77h-286v-37h286Zm-285-1h284v-35h-284Z"/><path d="M7.66,161.81l-1.24-3.18h-4l-1.23,3.18H0l4-10h1l3.93,10ZM6,157.59l-1.16-3.1q-.23-.59-.46-1.44A12.7,12.7,0,0,1,4,154.49l-1.18,3.1Z"/><path d="M15.16,160.81H15.1A2.67,2.67,0,0,1,12.75,162a2.78,2.78,0,0,1-2.29-1,4.42,4.42,0,0,1-.82-2.86,4.5,4.5,0,0,1,.82-2.88,2.76,2.76,0,0,1,2.28-1,2.72,2.72,0,0,1,2.34,1.11h.09l0-.54,0-.53v-3h1.13v10.64h-.92Zm-2.27.19a2.07,2.07,0,0,0,1.69-.63,3.2,3.2,0,0,0,.52-2v-.24a3.76,3.76,0,0,0-.53-2.27,2,2,0,0,0-1.69-.68,1.74,1.74,0,0,0-1.53.78,3.85,3.85,0,0,0-.53,2.19,3.7,3.7,0,0,0,.53,2.17A1.78,1.78,0,0,0,12.89,161Z"/><path d="M23.74,160.81h-.06A2.67,2.67,0,0,1,21.33,162a2.78,2.78,0,0,1-2.29-1,4.42,4.42,0,0,1-.82-2.86,4.5,4.5,0,0,1,.82-2.88,2.76,2.76,0,0,1,2.28-1,2.72,2.72,0,0,1,2.34,1.11h.09l0-.54,0-.53v-3h1.13v10.64h-.92Zm-2.27.19a2.07,2.07,0,0,0,1.69-.63,3.2,3.2,0,0,0,.52-2v-.24a3.76,3.76,0,0,0-.53-2.27,2,2,0,0,0-1.69-.68,1.74,1.74,0,0,0-1.53.78,3.85,3.85,0,0,0-.53,2.19,3.7,3.7,0,0,0,.53,2.17A1.78,1.78,0,0,0,21.47,161Z"/><path d="M30.64,154.19a4.43,4.43,0,0,1,.9.08l-.16,1.05a3.86,3.86,0,0,0-.82-.1A2,2,0,0,0,29,156a2.69,2.69,0,0,0-.65,1.84v4H27.22v-7.49h.94l.13,1.39h.05a3.3,3.3,0,0,1,1-1.13A2.27,2.27,0,0,1,30.64,154.19Z"/><path d="M36.1,162a3.44,3.44,0,0,1-2.62-1,3.91,3.91,0,0,1-1-2.81,4.34,4.34,0,0,1,.89-2.88,3,3,0,0,1,2.4-1.07,2.83,2.83,0,0,1,2.23.93,3.55,3.55,0,0,1,.82,2.44v.72H33.69a3,3,0,0,0,.67,2,2.3,2.3,0,0,0,1.78.68,6,6,0,0,0,2.39-.51v1a5.94,5.94,0,0,1-1.14.37A6.33,6.33,0,0,1,36.1,162Zm-.31-6.82a1.85,1.85,0,0,0-1.44.59,2.71,2.71,0,0,0-.63,1.63h3.92a2.49,2.49,0,0,0-.48-1.64A1.68,1.68,0,0,0,35.79,155.14Z"/><path d="M45.62,159.77a1.88,1.88,0,0,1-.78,1.61,3.66,3.66,0,0,1-2.19.57,4.76,4.76,0,0,1-2.32-.47v-1.05a5.64,5.64,0,0,0,1.16.43,4.8,4.8,0,0,0,1.19.16,2.7,2.7,0,0,0,1.37-.28,1,1,0,0,0,.1-1.61,6,6,0,0,0-1.48-.73,8,8,0,0,1-1.49-.68,2,2,0,0,1-.66-.66,1.72,1.72,0,0,1-.22-.88,1.68,1.68,0,0,1,.75-1.45,3.48,3.48,0,0,1,2-.53,6,6,0,0,1,2.37.49l-.4.92a5.43,5.43,0,0,0-2-.46,2.36,2.36,0,0,0-1.22.25.78.78,0,0,0-.41.7.85.85,0,0,0,.15.51,1.51,1.51,0,0,0,.5.4,11.23,11.23,0,0,0,1.31.55,4.9,4.9,0,0,1,1.8,1A1.73,1.73,0,0,1,45.62,159.77Z"/><path d="M52.3,159.77a1.88,1.88,0,0,1-.78,1.61,3.66,3.66,0,0,1-2.19.57,4.76,4.76,0,0,1-2.32-.47v-1.05a5.64,5.64,0,0,0,1.16.43,4.8,4.8,0,0,0,1.19.16,2.7,2.7,0,0,0,1.37-.28,1,1,0,0,0,.1-1.61,6,6,0,0,0-1.48-.73,8,8,0,0,1-1.49-.68,2,2,0,0,1-.66-.66,1.72,1.72,0,0,1-.22-.88,1.68,1.68,0,0,1,.75-1.45,3.48,3.48,0,0,1,2-.53,6,6,0,0,1,2.37.49l-.4.92a5.43,5.43,0,0,0-2-.46,2.36,2.36,0,0,0-1.22.25.78.78,0,0,0-.41.7.85.85,0,0,0,.15.51,1.51,1.51,0,0,0,.5.4,11.23,11.23,0,0,0,1.31.55,4.9,4.9,0,0,1,1.8,1A1.73,1.73,0,0,1,52.3,159.77Z"/><rect class="cls-1" x="219.85" y="149.82" width="410.16" height="36"/><path class="cls-2" d="M630.37,186.32H219.5v-37H630.37Zm-410.16-1H629.66v-35H220.2Z"/><path d="M1.37,62.27v-10H2.54v8.94H6.95v1.05Z"/><path d="M13.08,62.27l-.23-1.07H12.8a3.15,3.15,0,0,1-1.12,1,3.42,3.42,0,0,1-1.39.25,2.5,2.5,0,0,1-1.75-.57,2.09,2.09,0,0,1-.63-1.63q0-2.27,3.63-2.38l1.27,0v-.46a1.9,1.9,0,0,0-.38-1.3,1.56,1.56,0,0,0-1.21-.42,5,5,0,0,0-2.12.57l-.35-.87A5.35,5.35,0,0,1,10,54.83a5.28,5.28,0,0,1,1.32-.17,2.85,2.85,0,0,1,2,.59,2.48,2.48,0,0,1,.65,1.91v5.11Zm-2.56-.8a2.3,2.3,0,0,0,1.67-.58,2.15,2.15,0,0,0,.6-1.63v-.68l-1.13,0a4.12,4.12,0,0,0-2,.42,1.27,1.27,0,0,0-.6,1.16,1.17,1.17,0,0,0,.37.94A1.54,1.54,0,0,0,10.51,61.47Z"/><path d="M21.09,60.23a1.88,1.88,0,0,1-.78,1.61,3.66,3.66,0,0,1-2.19.57,4.76,4.76,0,0,1-2.32-.47V60.88a5.58,5.58,0,0,0,1.16.43,4.8,4.8,0,0,0,1.19.16,2.71,2.71,0,0,0,1.37-.28,1,1,0,0,0,.1-1.61,6,6,0,0,0-1.48-.74,8,8,0,0,1-1.49-.68A2,2,0,0,1,16,57.5a1.72,1.72,0,0,1-.22-.88,1.68,1.68,0,0,1,.75-1.45,3.47,3.47,0,0,1,2-.53,6,6,0,0,1,2.37.49l-.4.92a5.43,5.43,0,0,0-2-.46,2.36,2.36,0,0,0-1.22.25.78.78,0,0,0-.41.7.85.85,0,0,0,.15.51,1.51,1.51,0,0,0,.5.4,11.06,11.06,0,0,0,1.31.55,4.92,4.92,0,0,1,1.8,1A1.73,1.73,0,0,1,21.09,60.23Z"/><path d="M25.35,61.47a3.74,3.74,0,0,0,.58,0l.44-.09v.87a2.07,2.07,0,0,1-.54.15,4.16,4.16,0,0,1-.65.06Q23,62.41,23,60.12V55.66H21.94v-.55L23,54.64,23.5,53h.66v1.74h2.17v.88H24.15v4.41a1.52,1.52,0,0,0,.32,1A1.12,1.12,0,0,0,25.35,61.47Z"/><path d="M36.64,62.27V57.42a2,2,0,0,0-.42-1.37,1.7,1.7,0,0,0-1.31-.45,2.16,2.16,0,0,0-1.72.64,3.21,3.21,0,0,0-.55,2.1v3.93H31.51V54.78h.92l.18,1h.05a2.31,2.31,0,0,1,1-.86,3.17,3.17,0,0,1,1.4-.3,2.84,2.84,0,0,1,2,.65,2.77,2.77,0,0,1,.68,2.09v4.89Z"/><path d="M44.71,62.27l-.23-1.07h-.05a3.15,3.15,0,0,1-1.12,1,3.42,3.42,0,0,1-1.39.25,2.5,2.5,0,0,1-1.75-.57,2.09,2.09,0,0,1-.63-1.63q0-2.27,3.63-2.38l1.27,0v-.46a1.9,1.9,0,0,0-.38-1.3,1.56,1.56,0,0,0-1.21-.42,5,5,0,0,0-2.12.57l-.35-.87a5.35,5.35,0,0,1,1.21-.47,5.28,5.28,0,0,1,1.32-.17,2.85,2.85,0,0,1,2,.59,2.48,2.48,0,0,1,.65,1.91v5.11Zm-2.56-.8a2.3,2.3,0,0,0,1.67-.58,2.15,2.15,0,0,0,.6-1.63v-.68l-1.13,0a4.12,4.12,0,0,0-2,.42,1.27,1.27,0,0,0-.6,1.16,1.17,1.17,0,0,0,.37.94A1.54,1.54,0,0,0,42.15,61.47Z"/><path d="M57.44,62.27V57.4a2,2,0,0,0-.38-1.34,1.48,1.48,0,0,0-1.19-.45,1.92,1.92,0,0,0-1.57.61,2.9,2.9,0,0,0-.51,1.87v4.18H52.66V57.4a2,2,0,0,0-.38-1.34,1.49,1.49,0,0,0-1.2-.45,1.85,1.85,0,0,0-1.56.64,3.45,3.45,0,0,0-.5,2.09v3.93H47.89V54.78h.92l.18,1h.05a2.24,2.24,0,0,1,.91-.85,2.77,2.77,0,0,1,1.31-.31,2.22,2.22,0,0,1,2.3,1.27h.05a2.4,2.4,0,0,1,1-.93A3,3,0,0,1,56,54.64a2.54,2.54,0,0,1,1.9.65,2.92,2.92,0,0,1,.63,2.09v4.89Z"/><path d="M64.08,62.41a3.44,3.44,0,0,1-2.62-1,3.91,3.91,0,0,1-1-2.81,4.35,4.35,0,0,1,.89-2.88,3,3,0,0,1,2.4-1.07,2.82,2.82,0,0,1,2.23.93A3.55,3.55,0,0,1,66.83,58v.72H61.67a3,3,0,0,0,.67,2,2.3,2.3,0,0,0,1.78.68,6,6,0,0,0,2.39-.51v1a6,6,0,0,1-1.14.37A6.41,6.41,0,0,1,64.08,62.41Zm-.31-6.82a1.85,1.85,0,0,0-1.44.59,2.71,2.71,0,0,0-.63,1.63h3.92a2.49,2.49,0,0,0-.48-1.64A1.68,1.68,0,0,0,63.77,55.59Z"/><rect class="cls-1" x="220" y="100.04" width="285" height="36"/><path class="cls-2" d="M505.5,136.54h-286v-37h286Zm-285-1h284v-35h-284Z"/></g></g></svg>