<svg xmlns="http://www.w3.org/2000/svg" viewBox="0 0 585 385.41"><defs><style>.cls-1{fill:#fff;}.cls-2{fill:#ccc;}</style></defs><title>onecoltight</title><g id="Layer_2" data-name="Layer 2"><g id="Layer_1-2" data-name="Layer 1"><path d="M1.16,10.27H0V.28H5.57v1H1.16V5H5.3V6H1.16Z"/><path d="M7,.75A.76.76,0,0,1,7.15.18a.71.71,0,0,1,1,0,.74.74,0,0,1,.2.57.75.75,0,0,1-.2.57.66.66,0,0,1-.47.19.65.65,0,0,1-.48-.19A.77.77,0,0,1,7,.75Zm1.23,9.52H7.05V2.78H8.19Z"/><path d="M14,2.65a4.44,4.44,0,0,1,.9.08l-.16,1.05a3.87,3.87,0,0,0-.82-.1,2,2,0,0,0-1.56.74,2.69,2.69,0,0,0-.65,1.84v4H10.6V2.78h.94l.13,1.39h.05a3.28,3.28,0,0,1,1-1.13A2.26,2.26,0,0,1,14,2.65Z"/><path d="M21.14,8.23a1.88,1.88,0,0,1-.78,1.61,3.67,3.67,0,0,1-2.19.57,4.76,4.76,0,0,1-2.32-.47V8.89A5.69,5.69,0,0,0,17,9.32a4.86,4.86,0,0,0,1.19.16,2.7,2.7,0,0,0,1.37-.28,1,1,0,0,0,.1-1.61,6,6,0,0,0-1.48-.73,8,8,0,0,1-1.49-.68A2,2,0,0,1,16,5.5a1.72,1.72,0,0,1-.22-.88,1.68,1.68,0,0,1,.75-1.45,3.48,3.48,0,0,1,2-.53A6,6,0,0,1,21,3.14l-.4.92a5.42,5.42,0,0,0-2-.46,2.35,2.35,0,0,0-1.22.25.78.78,0,0,0-.41.7.85.85,0,0,0,.15.51,1.53,1.53,0,0,0,.5.4A11.33,11.33,0,0,0,18.87,6a4.9,4.9,0,0,1,1.8,1A1.72,1.72,0,0,1,21.14,8.23Z"/><path d="M25.41,9.47a3.63,3.63,0,0,0,.58,0l.44-.09v.87a2.08,2.08,0,0,1-.54.15,4,4,0,0,1-.65.06q-2.17,0-2.17-2.29V3.66H22V3.12l1.07-.47L23.55,1h.66V2.78h2.17v.88H24.21V8.07a1.52,1.52,0,0,0,.32,1A1.12,1.12,0,0,0,25.41,9.47Z"/><path d="M36.7,10.27V5.43a2,2,0,0,0-.42-1.37A1.7,1.7,0,0,0,35,3.61a2.15,2.15,0,0,0-1.72.64,3.21,3.21,0,0,0-.55,2.1v3.93H31.57V2.78h.92l.18,1h.05a2.32,2.32,0,0,1,1-.86,3.18,3.18,0,0,1,1.4-.3,2.85,2.85,0,0,1,2,.65,2.78,2.78,0,0,1,.68,2.09v4.89Z"/><path d="M44.77,10.27l-.23-1.07h-.05a3.15,3.15,0,0,1-1.12,1,3.4,3.4,0,0,1-1.39.25,2.5,2.5,0,0,1-1.75-.57A2.1,2.1,0,0,1,39.6,8.2q0-2.27,3.63-2.38l1.27,0V5.32A1.9,1.9,0,0,0,44.12,4a1.56,1.56,0,0,0-1.21-.42,4.94,4.94,0,0,0-2.12.57l-.35-.87A5.45,5.45,0,0,1,43,2.66a2.85,2.85,0,0,1,2,.59,2.48,2.48,0,0,1,.65,1.91v5.11Zm-2.56-.8a2.31,2.31,0,0,0,1.66-.58,2.15,2.15,0,0,0,.6-1.63V6.59l-1.13,0a4.12,4.12,0,0,0-2,.42,1.27,1.27,0,0,0-.6,1.16,1.17,1.17,0,0,0,.37.94A1.55,1.55,0,0,0,42.21,9.47Z"/><path d="M57.5,10.27V5.4a2,2,0,0,0-.38-1.34,1.48,1.48,0,0,0-1.19-.45,1.92,1.92,0,0,0-1.57.61,2.89,2.89,0,0,0-.51,1.87v4.18H52.72V5.4a2,2,0,0,0-.38-1.34,1.49,1.49,0,0,0-1.2-.45,1.85,1.85,0,0,0-1.56.64,3.46,3.46,0,0,0-.5,2.1v3.93H47.95V2.78h.92l.18,1h.05A2.23,2.23,0,0,1,50,3a2.77,2.77,0,0,1,1.31-.31,2.23,2.23,0,0,1,2.3,1.27h.05a2.38,2.38,0,0,1,1-.93,3,3,0,0,1,1.45-.34A2.54,2.54,0,0,1,58,3.3a2.92,2.92,0,0,1,.63,2.09v4.89Z"/><path d="M64.13,10.41a3.44,3.44,0,0,1-2.62-1,3.92,3.92,0,0,1-1-2.81,4.34,4.34,0,0,1,.89-2.88,3,3,0,0,1,2.4-1.07,2.83,2.83,0,0,1,2.23.93A3.55,3.55,0,0,1,66.89,6v.72H61.73a3,3,0,0,0,.67,2,2.31,2.31,0,0,0,1.78.68,6,6,0,0,0,2.39-.51v1a6,6,0,0,1-1.14.37A6.39,6.39,0,0,1,64.13,10.41ZM63.83,3.6a1.85,1.85,0,0,0-1.44.59,2.71,2.71,0,0,0-.63,1.63h3.92a2.5,2.5,0,0,0-.48-1.64A1.69,1.69,0,0,0,63.83,3.6Z"/><rect class="cls-1" x="0.5" y="15.27" width="285" height="36"/><path class="cls-2" d="M286,51.77H0v-37H286Zm-285-1H285v-35H1Z"/><path d="M4.8,223.84a3.27,3.27,0,0,0-2.6,1.1,4.42,4.42,0,0,0-1,3,4.52,4.52,0,0,0,.92,3A3.27,3.27,0,0,0,4.79,232a8.94,8.94,0,0,0,2.39-.38v1a7.35,7.35,0,0,1-2.56.39,4.34,4.34,0,0,1-3.41-1.34A5.52,5.52,0,0,1,0,227.93a6,6,0,0,1,.58-2.71,4.15,4.15,0,0,1,1.67-1.79,5.05,5.05,0,0,1,2.57-.63,6.19,6.19,0,0,1,2.75.57l-.49,1A5.3,5.3,0,0,0,4.8,223.84Z"/><path d="M9.08,223.42a.75.75,0,0,1,.19-.57.71.71,0,0,1,1,0,.74.74,0,0,1,.2.57.75.75,0,0,1-.2.57.66.66,0,0,1-.47.19.66.66,0,0,1-.48-.19A.77.77,0,0,1,9.08,223.42Zm1.23,9.52H9.18v-7.49h1.13Z"/><path d="M15.14,232.14a3.75,3.75,0,0,0,.58,0l.44-.09v.87a2.07,2.07,0,0,1-.54.15,4.15,4.15,0,0,1-.65.06q-2.17,0-2.17-2.29v-4.46H11.73v-.55l1.07-.47.48-1.6h.66v1.74h2.17v.88H13.94v4.41a1.52,1.52,0,0,0,.32,1A1.12,1.12,0,0,0,15.14,232.14Z"/><path d="M16.47,225.45h1.22l1.64,4.27a16.28,16.28,0,0,1,.67,2.11h.05q.09-.35.37-1.19t1.86-5.19H23.5L20.28,234a4.25,4.25,0,0,1-1.12,1.79,2.38,2.38,0,0,1-1.57.53,4.53,4.53,0,0,1-1-.12v-.91a4,4,0,0,0,.84.08A1.73,1.73,0,0,0,19.08,234L19.5,233Z"/><rect class="cls-1" x="0.5" y="237.94" width="285" height="36"/><path class="cls-2" d="M286,274.44H0v-37H286Zm-285-1H285v-35H1Z"/><path d="M6.29,285.55a2.45,2.45,0,0,1-1,2.06,4.15,4.15,0,0,1-2.6.74A6.52,6.52,0,0,1,0,287.89v-1.12a7.25,7.25,0,0,0,1.34.41,7.09,7.09,0,0,0,1.44.15,2.9,2.9,0,0,0,1.75-.44,1.45,1.45,0,0,0,.59-1.23,1.58,1.58,0,0,0-.21-.85,1.94,1.94,0,0,0-.7-.61,9.61,9.61,0,0,0-1.49-.64,4.76,4.76,0,0,1-2-1.18,2.61,2.61,0,0,1-.6-1.78A2.22,2.22,0,0,1,1,278.76a3.61,3.61,0,0,1,2.3-.68,6.76,6.76,0,0,1,2.74.55l-.36,1a6.19,6.19,0,0,0-2.41-.52,2.33,2.33,0,0,0-1.44.4,1.31,1.31,0,0,0-.52,1.1,1.69,1.69,0,0,0,.19.85,1.79,1.79,0,0,0,.65.61,8,8,0,0,0,1.39.61,5.49,5.49,0,0,1,2.16,1.2A2.37,2.37,0,0,1,6.29,285.55Z"/><path d="M10.58,287.41a3.63,3.63,0,0,0,.58,0l.44-.09v.87a2.08,2.08,0,0,1-.54.15,4,4,0,0,1-.65.06q-2.17,0-2.17-2.29V281.6H7.17v-.55l1.07-.47.48-1.6h.66v1.74h2.17v.88H9.38V286a1.52,1.52,0,0,0,.32,1A1.12,1.12,0,0,0,10.58,287.41Z"/><path d="M17.71,288.21l-.23-1.07h-.05a3.15,3.15,0,0,1-1.12,1,3.4,3.4,0,0,1-1.39.25,2.5,2.5,0,0,1-1.75-.57,2.1,2.1,0,0,1-.63-1.63q0-2.27,3.63-2.38l1.27,0v-.46a1.9,1.9,0,0,0-.38-1.3,1.56,1.56,0,0,0-1.21-.42,4.94,4.94,0,0,0-2.12.57l-.35-.87a5.45,5.45,0,0,1,2.54-.64,2.85,2.85,0,0,1,2,.59,2.48,2.48,0,0,1,.65,1.91v5.11Zm-2.56-.8a2.31,2.31,0,0,0,1.66-.58,2.15,2.15,0,0,0,.6-1.63v-.68l-1.13,0a4.12,4.12,0,0,0-2,.42,1.27,1.27,0,0,0-.6,1.16,1.17,1.17,0,0,0,.37.94A1.55,1.55,0,0,0,15.15,287.41Z"/><path d="M23.31,287.41a3.63,3.63,0,0,0,.58,0l.44-.09v.87a2.08,2.08,0,0,1-.54.15,4,4,0,0,1-.65.06q-2.17,0-2.17-2.29V281.6H19.9v-.55l1.07-.47.48-1.6h.66v1.74h2.17v.88H22.11V286a1.52,1.52,0,0,0,.32,1A1.12,1.12,0,0,0,23.31,287.41Z"/><path d="M29,288.35a3.44,3.44,0,0,1-2.62-1,3.92,3.92,0,0,1-1-2.81,4.34,4.34,0,0,1,.89-2.88,3,3,0,0,1,2.4-1.07,2.83,2.83,0,0,1,2.23.93,3.55,3.55,0,0,1,.82,2.44v.72H26.59a3,3,0,0,0,.67,2,2.31,2.31,0,0,0,1.78.68,6,6,0,0,0,2.39-.51v1a6,6,0,0,1-1.14.37A6.39,6.39,0,0,1,29,288.35Zm-.31-6.82a1.85,1.85,0,0,0-1.44.59,2.71,2.71,0,0,0-.63,1.63h3.92a2.5,2.5,0,0,0-.48-1.64A1.69,1.69,0,0,0,28.69,281.54Z"/><rect class="cls-1" x="0.5" y="293.21" width="100" height="36"/><path class="cls-2" d="M101,329.71H0v-37H101Zm-100-1h99v-35H1Z"/><path d="M6.87,343.91H0V343l5.3-8H.16v-1H6.72v.91l-5.3,8H6.87Z"/><path d="M8.54,334.39a.75.75,0,0,1,.19-.57.71.71,0,0,1,1,0,.74.74,0,0,1,.2.57.75.75,0,0,1-.2.57.66.66,0,0,1-.47.19.66.66,0,0,1-.48-.19A.77.77,0,0,1,8.54,334.39Zm1.23,9.52H8.63v-7.49H9.77Z"/><path d="M15.66,344a3.25,3.25,0,0,1-1.34-.27,2.52,2.52,0,0,1-1-.83h-.08a10.05,10.05,0,0,1,.08,1.24v3.08H12.17V336.42h.92l.16,1h.05a2.64,2.64,0,0,1,1-.89,3.1,3.1,0,0,1,1.33-.27,2.77,2.77,0,0,1,2.3,1,5.42,5.42,0,0,1,0,5.73A2.78,2.78,0,0,1,15.66,344Zm-.16-6.8a2,2,0,0,0-1.66.64,3.27,3.27,0,0,0-.53,2v.25a3.75,3.75,0,0,0,.53,2.26,2,2,0,0,0,1.69.68,1.75,1.75,0,0,0,1.52-.79,3.73,3.73,0,0,0,.55-2.17A3.59,3.59,0,0,0,17,338,1.81,1.81,0,0,0,15.5,337.25Z"/><rect class="cls-1" x="0.5" y="348.91" width="100" height="36"/><path class="cls-2" d="M101,385.41H0v-37H101Zm-100-1h99v-35H1Z"/><path d="M3.92,116.82l2.67-5H7.84L4.5,117.94v3.88H3.33V118L0,111.83H1.27Z"/><path d="M15.51,118.07a4.13,4.13,0,0,1-.92,2.86A3.25,3.25,0,0,1,12,122a3.38,3.38,0,0,1-1.78-.47,3.11,3.11,0,0,1-1.2-1.35,4.71,4.71,0,0,1-.42-2.06,4.12,4.12,0,0,1,.92-2.85,3.24,3.24,0,0,1,2.54-1,3.17,3.17,0,0,1,2.5,1A4.11,4.11,0,0,1,15.51,118.07Zm-5.71,0a3.56,3.56,0,0,0,.57,2.19,2,2,0,0,0,1.69.75,2,2,0,0,0,1.69-.75,3.54,3.54,0,0,0,.58-2.19,3.48,3.48,0,0,0-.58-2.17,2,2,0,0,0-1.71-.74,2,2,0,0,0-1.68.73A3.52,3.52,0,0,0,9.8,118.07Z"/><path d="M18.57,114.33v4.86a2,2,0,0,0,.42,1.37,1.7,1.7,0,0,0,1.31.45,2.13,2.13,0,0,0,1.72-.64,3.24,3.24,0,0,0,.54-2.1v-3.94h1.13v7.49h-.94l-.16-1h-.06a2.26,2.26,0,0,1-1,.85,3.25,3.25,0,0,1-1.41.29,2.86,2.86,0,0,1-2-.65,2.76,2.76,0,0,1-.68-2.08v-4.9Z"/><path d="M29.51,114.19a4.44,4.44,0,0,1,.9.08l-.16,1.05a3.87,3.87,0,0,0-.82-.1,2,2,0,0,0-1.56.74,2.69,2.69,0,0,0-.65,1.84v4H26.09v-7.49H27l.13,1.39h.05a3.3,3.3,0,0,1,1-1.13A2.27,2.27,0,0,1,29.51,114.19Z"/><path d="M38.93,122a3.25,3.25,0,0,1-1.34-.27,2.52,2.52,0,0,1-1-.83H36.5a10.05,10.05,0,0,1,.08,1.24v3.08H35.44V114.33h.92l.16,1h.05a2.64,2.64,0,0,1,1-.89,3.1,3.1,0,0,1,1.33-.27,2.77,2.77,0,0,1,2.3,1,5.42,5.42,0,0,1,0,5.73A2.78,2.78,0,0,1,38.93,122Zm-.16-6.8a2,2,0,0,0-1.66.64,3.27,3.27,0,0,0-.53,2v.25a3.75,3.75,0,0,0,.53,2.26,2,2,0,0,0,1.69.68,1.75,1.75,0,0,0,1.52-.79,3.73,3.73,0,0,0,.55-2.17,3.59,3.59,0,0,0-.55-2.15A1.81,1.81,0,0,0,38.77,115.15Z"/><path d="M49.15,121.82V117a2,2,0,0,0-.42-1.37,1.7,1.7,0,0,0-1.31-.45,2.14,2.14,0,0,0-1.73.64,3.26,3.26,0,0,0-.54,2.11v3.92H44V111.18h1.13v3.22a7,7,0,0,1-.05,1h.07a2.31,2.31,0,0,1,1-.85,3.09,3.09,0,0,1,1.41-.31,2.89,2.89,0,0,1,2.06.65,2.75,2.75,0,0,1,.69,2.07v4.89Z"/><path d="M59.08,118.07a4.13,4.13,0,0,1-.92,2.86,3.25,3.25,0,0,1-2.55,1,3.38,3.38,0,0,1-1.78-.47,3.11,3.11,0,0,1-1.2-1.35,4.71,4.71,0,0,1-.42-2.06,4.12,4.12,0,0,1,.92-2.85,3.24,3.24,0,0,1,2.54-1,3.17,3.17,0,0,1,2.5,1A4.11,4.11,0,0,1,59.08,118.07Zm-5.71,0a3.56,3.56,0,0,0,.57,2.19,2.28,2.28,0,0,0,3.38,0,3.54,3.54,0,0,0,.58-2.19,3.48,3.48,0,0,0-.58-2.17,2,2,0,0,0-1.71-.74,2,2,0,0,0-1.68.73A3.52,3.52,0,0,0,53.38,118.07Z"/><path d="M66.2,121.82V117a2,2,0,0,0-.42-1.37,1.7,1.7,0,0,0-1.31-.45,2.15,2.15,0,0,0-1.72.64,3.21,3.21,0,0,0-.55,2.1v3.93H61.07v-7.49H62l.18,1h.05a2.31,2.31,0,0,1,1-.86,3.17,3.17,0,0,1,1.4-.3,2.84,2.84,0,0,1,2,.65,2.78,2.78,0,0,1,.68,2.09v4.89Z"/><path d="M72.83,122a3.44,3.44,0,0,1-2.62-1,3.92,3.92,0,0,1-1-2.81,4.34,4.34,0,0,1,.89-2.88,3,3,0,0,1,2.4-1.07,2.82,2.82,0,0,1,2.23.93,3.55,3.55,0,0,1,.82,2.44v.72H70.42a3,3,0,0,0,.67,2,2.3,2.3,0,0,0,1.78.68,6,6,0,0,0,2.39-.51v1a6,6,0,0,1-1.14.37A6.4,6.4,0,0,1,72.83,122Zm-.31-6.82a1.85,1.85,0,0,0-1.44.59,2.71,2.71,0,0,0-.63,1.63h3.92a2.49,2.49,0,0,0-.48-1.64A1.68,1.68,0,0,0,72.52,115.14Z"/><path d="M86.28,121.82V117a2,2,0,0,0-.42-1.37,1.7,1.7,0,0,0-1.31-.45,2.15,2.15,0,0,0-1.72.64,3.21,3.21,0,0,0-.55,2.1v3.93H81.16v-7.49h.92l.18,1h.05a2.31,2.31,0,0,1,1-.86,3.17,3.17,0,0,1,1.4-.3,2.84,2.84,0,0,1,2,.65,2.78,2.78,0,0,1,.68,2.09v4.89Z"/><path d="M90.82,114.33v4.86a2,2,0,0,0,.42,1.37,1.7,1.7,0,0,0,1.31.45,2.13,2.13,0,0,0,1.72-.64,3.24,3.24,0,0,0,.54-2.1v-3.94h1.13v7.49H95l-.16-1h-.06a2.26,2.26,0,0,1-1,.85,3.25,3.25,0,0,1-1.41.29,2.86,2.86,0,0,1-2-.65,2.76,2.76,0,0,1-.68-2.08v-4.9Z"/><path d="M107.89,121.82v-4.87a2,2,0,0,0-.38-1.34,1.48,1.48,0,0,0-1.19-.45,1.92,1.92,0,0,0-1.57.61,2.89,2.89,0,0,0-.51,1.87v4.18h-1.13v-4.87a2,2,0,0,0-.38-1.34,1.49,1.49,0,0,0-1.2-.45,1.85,1.85,0,0,0-1.56.64,3.46,3.46,0,0,0-.5,2.09v3.93H98.34v-7.49h.92l.18,1h.05a2.23,2.23,0,0,1,.91-.85,2.77,2.77,0,0,1,1.31-.31,2.23,2.23,0,0,1,2.3,1.27h.05a2.39,2.39,0,0,1,1-.93,3,3,0,0,1,1.45-.34,2.54,2.54,0,0,1,1.9.65,2.92,2.92,0,0,1,.63,2.09v4.89Z"/><path d="M114.85,114.2a2.78,2.78,0,0,1,2.29,1,5.4,5.4,0,0,1,0,5.72,2.78,2.78,0,0,1-2.29,1,3.25,3.25,0,0,1-1.34-.27,2.52,2.52,0,0,1-1-.83h-.08l-.24,1h-.81V111.18h1.13v2.58q0,.87-.05,1.56h.05A2.69,2.69,0,0,1,114.85,114.2Zm-.16,1a2,2,0,0,0-1.67.67,5.14,5.14,0,0,0,0,4.5,2,2,0,0,0,1.69.68,1.75,1.75,0,0,0,1.56-.76,3.92,3.92,0,0,0,.51-2.19,3.77,3.77,0,0,0-.51-2.18A1.82,1.82,0,0,0,114.69,115.15Z"/><path d="M123.11,122a3.44,3.44,0,0,1-2.62-1,3.92,3.92,0,0,1-1-2.81,4.34,4.34,0,0,1,.89-2.88,3,3,0,0,1,2.4-1.07,2.82,2.82,0,0,1,2.23.93,3.55,3.55,0,0,1,.82,2.44v.72H120.7a3,3,0,0,0,.67,2,2.3,2.3,0,0,0,1.78.68,6,6,0,0,0,2.39-.51v1a6,6,0,0,1-1.14.37A6.4,6.4,0,0,1,123.11,122Zm-.31-6.82a1.85,1.85,0,0,0-1.44.59,2.71,2.71,0,0,0-.63,1.63h3.92a2.49,2.49,0,0,0-.48-1.64A1.68,1.68,0,0,0,122.8,115.14Z"/><path d="M131.22,114.19a4.44,4.44,0,0,1,.9.08l-.16,1.05a3.87,3.87,0,0,0-.82-.1,2,2,0,0,0-1.56.74,2.69,2.69,0,0,0-.65,1.84v4H127.8v-7.49h.94l.13,1.39h.05a3.3,3.3,0,0,1,1-1.13A2.27,2.27,0,0,1,131.22,114.19Z"/><rect class="cls-1" x="0.5" y="70.82" width="285" height="36"/><path class="cls-2" d="M286,107.32H0v-37H286Zm-285-1H285v-35H1Z"/><path d="M7.66,177.61l-1.24-3.18h-4l-1.23,3.18H0l4-10h1l3.93,10ZM6,173.38l-1.16-3.1q-.23-.59-.46-1.44A12.84,12.84,0,0,1,4,170.29l-1.18,3.1Z"/><path d="M15.16,176.6H15.1a2.66,2.66,0,0,1-2.35,1.14,2.78,2.78,0,0,1-2.29-1,4.43,4.43,0,0,1-.82-2.86,4.5,4.5,0,0,1,.82-2.88,2.76,2.76,0,0,1,2.28-1,2.72,2.72,0,0,1,2.34,1.11h.09l0-.54,0-.53v-3h1.13v10.64h-.92Zm-2.27.19a2.06,2.06,0,0,0,1.69-.63,3.19,3.19,0,0,0,.52-2v-.24a3.76,3.76,0,0,0-.53-2.27,2,2,0,0,0-1.69-.68,1.74,1.74,0,0,0-1.53.78,3.86,3.86,0,0,0-.53,2.19,3.7,3.7,0,0,0,.53,2.17A1.78,1.78,0,0,0,12.89,176.79Z"/><path d="M23.74,176.6h-.06a2.66,2.66,0,0,1-2.35,1.14,2.78,2.78,0,0,1-2.29-1,4.43,4.43,0,0,1-.82-2.86A4.5,4.5,0,0,1,19,171a2.76,2.76,0,0,1,2.28-1,2.72,2.72,0,0,1,2.34,1.11h.09l0-.54,0-.53v-3h1.13v10.64h-.92Zm-2.27.19a2.06,2.06,0,0,0,1.69-.63,3.19,3.19,0,0,0,.52-2v-.24a3.76,3.76,0,0,0-.53-2.27,2,2,0,0,0-1.69-.68,1.74,1.74,0,0,0-1.53.78,3.86,3.86,0,0,0-.53,2.19,3.7,3.7,0,0,0,.53,2.17A1.78,1.78,0,0,0,21.47,176.79Z"/><path d="M30.64,170a4.44,4.44,0,0,1,.9.08l-.16,1.05a3.87,3.87,0,0,0-.82-.1,2,2,0,0,0-1.56.74,2.69,2.69,0,0,0-.65,1.84v4H27.22v-7.49h.94l.13,1.39h.05a3.29,3.29,0,0,1,1-1.13A2.26,2.26,0,0,1,30.64,170Z"/><path d="M36.1,177.74a3.44,3.44,0,0,1-2.62-1,3.92,3.92,0,0,1-1-2.81,4.34,4.34,0,0,1,.89-2.88,3,3,0,0,1,2.4-1.07,2.82,2.82,0,0,1,2.23.93,3.55,3.55,0,0,1,.82,2.44v.72H33.69a3,3,0,0,0,.67,2,2.31,2.31,0,0,0,1.78.68,6,6,0,0,0,2.39-.51v1a6,6,0,0,1-1.14.37A6.47,6.47,0,0,1,36.1,177.74Zm-.31-6.82a1.85,1.85,0,0,0-1.44.59,2.71,2.71,0,0,0-.63,1.63h3.92a2.5,2.5,0,0,0-.48-1.64A1.69,1.69,0,0,0,35.79,170.93Z"/><path d="M45.62,175.56a1.88,1.88,0,0,1-.78,1.61,3.66,3.66,0,0,1-2.19.57,4.76,4.76,0,0,1-2.32-.47v-1.05a5.63,5.63,0,0,0,1.16.43,4.86,4.86,0,0,0,1.19.16,2.71,2.71,0,0,0,1.37-.28,1,1,0,0,0,.1-1.61,5.93,5.93,0,0,0-1.48-.74,8,8,0,0,1-1.49-.68,2,2,0,0,1-.66-.66,1.72,1.72,0,0,1-.22-.88,1.68,1.68,0,0,1,.75-1.45,3.47,3.47,0,0,1,2-.53,6,6,0,0,1,2.37.49l-.4.92a5.42,5.42,0,0,0-2-.46,2.35,2.35,0,0,0-1.22.25.78.78,0,0,0-.41.7.85.85,0,0,0,.15.51,1.53,1.53,0,0,0,.5.4,11.16,11.16,0,0,0,1.31.55,4.91,4.91,0,0,1,1.8,1A1.73,1.73,0,0,1,45.62,175.56Z"/><path d="M52.3,175.56a1.88,1.88,0,0,1-.78,1.61,3.66,3.66,0,0,1-2.19.57,4.76,4.76,0,0,1-2.32-.47v-1.05a5.63,5.63,0,0,0,1.16.43,4.86,4.86,0,0,0,1.19.16,2.71,2.71,0,0,0,1.37-.28,1,1,0,0,0,.1-1.61,5.93,5.93,0,0,0-1.48-.74,8,8,0,0,1-1.49-.68,2,2,0,0,1-.66-.66A1.72,1.72,0,0,1,47,172a1.68,1.68,0,0,1,.75-1.45,3.47,3.47,0,0,1,2-.53,6,6,0,0,1,2.37.49l-.4.92a5.42,5.42,0,0,0-2-.46,2.35,2.35,0,0,0-1.22.25.78.78,0,0,0-.41.7.85.85,0,0,0,.15.51,1.53,1.53,0,0,0,.5.4,11.16,11.16,0,0,0,1.31.55,4.91,4.91,0,0,1,1.8,1A1.73,1.73,0,0,1,52.3,175.56Z"/><rect class="cls-1" x="0.5" y="182.61" width="584" height="36"/><path class="cls-2" d="M585,219.11H0v-37H585Zm-584-1H584v-35H1Z"/><path d="M0,66V56H1.16v8.94H5.57V66Z"/><path d="M11.7,66l-.23-1.07h-.05a3.15,3.15,0,0,1-1.12,1,3.41,3.41,0,0,1-1.39.25,2.5,2.5,0,0,1-1.75-.57,2.1,2.1,0,0,1-.63-1.63q0-2.27,3.63-2.38l1.27,0V61a1.9,1.9,0,0,0-.38-1.3,1.56,1.56,0,0,0-1.21-.42,4.94,4.94,0,0,0-2.12.57L7.38,59a5.42,5.42,0,0,1,2.54-.64,2.85,2.85,0,0,1,2,.59,2.48,2.48,0,0,1,.65,1.91V66Zm-2.56-.8a2.31,2.31,0,0,0,1.66-.58,2.15,2.15,0,0,0,.6-1.63v-.68l-1.13,0a4.12,4.12,0,0,0-2,.42,1.27,1.27,0,0,0-.6,1.16,1.17,1.17,0,0,0,.37.94A1.55,1.55,0,0,0,9.14,65.17Z"/><path d="M19.71,63.93a1.88,1.88,0,0,1-.78,1.61,3.66,3.66,0,0,1-2.19.57,4.76,4.76,0,0,1-2.32-.47V64.58a5.63,5.63,0,0,0,1.16.43,4.85,4.85,0,0,0,1.19.16,2.7,2.7,0,0,0,1.37-.28,1,1,0,0,0,.1-1.61,6,6,0,0,0-1.48-.73,8,8,0,0,1-1.49-.68,2,2,0,0,1-.66-.66,1.72,1.72,0,0,1-.22-.88,1.68,1.68,0,0,1,.75-1.45,3.47,3.47,0,0,1,2-.53,6,6,0,0,1,2.37.49l-.4.92a5.43,5.43,0,0,0-2-.46,2.35,2.35,0,0,0-1.22.25.78.78,0,0,0-.41.7.85.85,0,0,0,.15.51,1.52,1.52,0,0,0,.5.4,11.2,11.2,0,0,0,1.31.55,4.91,4.91,0,0,1,1.8,1A1.72,1.72,0,0,1,19.71,63.93Z"/><path d="M24,65.17a3.63,3.63,0,0,0,.58,0L25,65v.87a2.12,2.12,0,0,1-.54.15,4,4,0,0,1-.65.06q-2.17,0-2.17-2.29V59.36H20.57v-.55l1.07-.47.48-1.6h.66v1.74H25v.88H22.78v4.41a1.52,1.52,0,0,0,.32,1A1.12,1.12,0,0,0,24,65.17Z"/><path d="M35.27,66V61.12a2,2,0,0,0-.42-1.37,1.7,1.7,0,0,0-1.31-.45,2.15,2.15,0,0,0-1.72.64,3.21,3.21,0,0,0-.55,2.1V66H30.14V58.48h.92l.18,1h.05a2.31,2.31,0,0,1,1-.86,3.18,3.18,0,0,1,1.4-.3,2.84,2.84,0,0,1,2,.65,2.78,2.78,0,0,1,.68,2.09V66Z"/><path d="M43.34,66l-.23-1.07h-.05a3.15,3.15,0,0,1-1.12,1,3.41,3.41,0,0,1-1.39.25,2.5,2.5,0,0,1-1.75-.57,2.1,2.1,0,0,1-.63-1.63q0-2.27,3.63-2.38l1.27,0V61a1.9,1.9,0,0,0-.38-1.3,1.56,1.56,0,0,0-1.21-.42,4.94,4.94,0,0,0-2.12.57L39,59a5.42,5.42,0,0,1,2.54-.64,2.85,2.85,0,0,1,2,.59,2.48,2.48,0,0,1,.65,1.91V66Zm-2.56-.8a2.31,2.31,0,0,0,1.66-.58A2.15,2.15,0,0,0,43,63v-.68l-1.13,0a4.12,4.12,0,0,0-2,.42,1.27,1.27,0,0,0-.6,1.16,1.17,1.17,0,0,0,.37.94A1.55,1.55,0,0,0,40.78,65.17Z"/><path d="M56.07,66V61.1a2,2,0,0,0-.38-1.34,1.48,1.48,0,0,0-1.19-.45,1.92,1.92,0,0,0-1.57.61,2.89,2.89,0,0,0-.51,1.87V66H51.29V61.1a2,2,0,0,0-.38-1.34,1.49,1.49,0,0,0-1.2-.45,1.85,1.85,0,0,0-1.56.64,3.46,3.46,0,0,0-.5,2.09V66H46.52V58.48h.92l.18,1h.05a2.23,2.23,0,0,1,.91-.86,2.77,2.77,0,0,1,1.31-.31,2.23,2.23,0,0,1,2.3,1.27h.05a2.38,2.38,0,0,1,1-.93,3,3,0,0,1,1.45-.34,2.54,2.54,0,0,1,1.9.65,2.92,2.92,0,0,1,.63,2.09V66Z"/><path d="M62.71,66.11a3.44,3.44,0,0,1-2.62-1,3.92,3.92,0,0,1-1-2.81A4.34,4.34,0,0,1,60,59.41a3,3,0,0,1,2.4-1.07,2.83,2.83,0,0,1,2.23.93,3.55,3.55,0,0,1,.82,2.44v.72H60.3a3,3,0,0,0,.67,2,2.3,2.3,0,0,0,1.78.68,6,6,0,0,0,2.39-.51v1A6,6,0,0,1,64,66,6.39,6.39,0,0,1,62.71,66.11Zm-.31-6.82a1.85,1.85,0,0,0-1.44.59,2.71,2.71,0,0,0-.63,1.63h3.92a2.49,2.49,0,0,0-.48-1.64A1.69,1.69,0,0,0,62.4,59.29Z"/><rect class="cls-1" x="0.5" y="126.97" width="285" height="36"/><path class="cls-2" d="M286,163.47H0v-37H286Zm-285-1H285v-35H1Z"/></g></g></svg>