<svg xmlns="http://www.w3.org/2000/svg" viewBox="0 0 585 465.41"><defs><style>.cls-1{fill:#fff;}.cls-2{fill:#ccc;}</style></defs><title>onecol</title><g id="Layer_2" data-name="Layer 2"><g id="Layer_1-2" data-name="Layer 1"><path d="M1.16,10.27H0V.28H5.57v1H1.16V5H5.3V6H1.16Z"/><path d="M7,.75A.75.75,0,0,1,7.15.18a.71.71,0,0,1,1,0,.74.74,0,0,1,.2.57.75.75,0,0,1-.2.57.67.67,0,0,1-.47.19.66.66,0,0,1-.48-.19A.77.77,0,0,1,7,.75Zm1.23,9.52H7.05V2.78H8.19Z"/><path d="M14,2.65a4.45,4.45,0,0,1,.9.08l-.16,1.05a3.88,3.88,0,0,0-.82-.1,2,2,0,0,0-1.56.74,2.69,2.69,0,0,0-.65,1.84v4H10.6V2.78h.94l.13,1.39h.05a3.29,3.29,0,0,1,1-1.13A2.27,2.27,0,0,1,14,2.65Z"/><path d="M21.14,8.23a1.88,1.88,0,0,1-.78,1.61,3.66,3.66,0,0,1-2.19.57,4.75,4.75,0,0,1-2.32-.47V8.89A5.57,5.57,0,0,0,17,9.32a4.82,4.82,0,0,0,1.19.16,2.71,2.71,0,0,0,1.37-.28,1,1,0,0,0,.1-1.61,6,6,0,0,0-1.48-.74,8.06,8.06,0,0,1-1.49-.68A2,2,0,0,1,16,5.5a1.72,1.72,0,0,1-.21-.88,1.68,1.68,0,0,1,.75-1.45,3.47,3.47,0,0,1,2-.53A6,6,0,0,1,21,3.14l-.4.92a5.44,5.44,0,0,0-2-.46,2.36,2.36,0,0,0-1.22.25.78.78,0,0,0-.41.7.85.85,0,0,0,.15.51,1.5,1.5,0,0,0,.5.4A10.91,10.91,0,0,0,18.87,6a4.9,4.9,0,0,1,1.8,1A1.72,1.72,0,0,1,21.14,8.23Z"/><path d="M25.41,9.47a3.76,3.76,0,0,0,.58,0l.44-.09v.87a2.08,2.08,0,0,1-.54.15,4.15,4.15,0,0,1-.65.06q-2.17,0-2.17-2.29V3.66H22V3.12l1.07-.47L23.55,1h.66V2.78h2.17v.88H24.21V8.07a1.51,1.51,0,0,0,.32,1A1.12,1.12,0,0,0,25.41,9.47Z"/><path d="M36.7,10.27V5.43a2,2,0,0,0-.42-1.37A1.7,1.7,0,0,0,35,3.61a2.15,2.15,0,0,0-1.72.64,3.21,3.21,0,0,0-.55,2.1v3.93H31.57V2.78h.92l.18,1h.05a2.31,2.31,0,0,1,1-.86,3.17,3.17,0,0,1,1.4-.3,2.84,2.84,0,0,1,2,.65,2.78,2.78,0,0,1,.68,2.09v4.89Z"/><path d="M44.77,10.27l-.23-1.07h-.05a3.16,3.16,0,0,1-1.12,1,3.41,3.41,0,0,1-1.39.25,2.5,2.5,0,0,1-1.75-.57A2.1,2.1,0,0,1,39.6,8.2q0-2.27,3.63-2.38l1.27,0V5.32A1.9,1.9,0,0,0,44.12,4a1.56,1.56,0,0,0-1.21-.42,4.94,4.94,0,0,0-2.12.57l-.35-.87a5.36,5.36,0,0,1,1.21-.47A5.29,5.29,0,0,1,43,2.66a2.85,2.85,0,0,1,2,.59,2.48,2.48,0,0,1,.65,1.91v5.11Zm-2.56-.8a2.3,2.3,0,0,0,1.66-.58,2.15,2.15,0,0,0,.61-1.63V6.59l-1.13,0a4.13,4.13,0,0,0-2,.42,1.27,1.27,0,0,0-.6,1.16,1.17,1.17,0,0,0,.37.94A1.54,1.54,0,0,0,42.21,9.47Z"/><path d="M57.5,10.27V5.4a2,2,0,0,0-.38-1.34,1.48,1.48,0,0,0-1.19-.45,1.92,1.92,0,0,0-1.57.61,2.89,2.89,0,0,0-.51,1.87v4.18H52.72V5.4a2,2,0,0,0-.38-1.34,1.49,1.49,0,0,0-1.2-.45,1.85,1.85,0,0,0-1.56.64,3.46,3.46,0,0,0-.5,2.09v3.93H47.95V2.78h.92l.18,1h.05A2.23,2.23,0,0,1,50,3a2.77,2.77,0,0,1,1.31-.31,2.23,2.23,0,0,1,2.3,1.27h.05a2.39,2.39,0,0,1,1-.93,3,3,0,0,1,1.45-.34A2.53,2.53,0,0,1,58,3.3a2.92,2.92,0,0,1,.63,2.09v4.89Z"/><path d="M64.13,10.41a3.44,3.44,0,0,1-2.62-1,3.92,3.92,0,0,1-1-2.81,4.34,4.34,0,0,1,.89-2.88,3,3,0,0,1,2.4-1.07,2.82,2.82,0,0,1,2.23.93A3.55,3.55,0,0,1,66.89,6v.72H61.73a3,3,0,0,0,.67,2,2.31,2.31,0,0,0,1.78.68,6,6,0,0,0,2.39-.51v1a6,6,0,0,1-1.14.37A6.39,6.39,0,0,1,64.13,10.41ZM63.83,3.6a1.86,1.86,0,0,0-1.44.59,2.71,2.71,0,0,0-.63,1.63h3.92a2.5,2.5,0,0,0-.48-1.64A1.68,1.68,0,0,0,63.83,3.6Z"/><rect class="cls-1" x="0.5" y="17.27" width="285" height="36"/><path class="cls-2" d="M286,53.77H0v-37H286Zm-285-1H285v-35H1Z"/><path d="M4.8,275.84a3.27,3.27,0,0,0-2.6,1.1,4.43,4.43,0,0,0-1,3,4.52,4.52,0,0,0,.92,3A3.27,3.27,0,0,0,4.79,284a9,9,0,0,0,2.39-.38v1a7.35,7.35,0,0,1-2.56.39,4.34,4.34,0,0,1-3.41-1.34A5.52,5.52,0,0,1,0,279.93a6,6,0,0,1,.58-2.71,4.15,4.15,0,0,1,1.67-1.79,5,5,0,0,1,2.57-.63,6.2,6.2,0,0,1,2.75.57l-.49,1A5.3,5.3,0,0,0,4.8,275.84Z"/><path d="M9.08,275.42a.75.75,0,0,1,.19-.57.71.71,0,0,1,1,0,.74.74,0,0,1,.2.57.75.75,0,0,1-.2.57.66.66,0,0,1-.47.19.65.65,0,0,1-.48-.19A.77.77,0,0,1,9.08,275.42Zm1.23,9.52H9.18v-7.49h1.13Z"/><path d="M15.14,284.14a3.64,3.64,0,0,0,.58,0l.44-.09v.87a2.08,2.08,0,0,1-.54.15,4,4,0,0,1-.65.06q-2.17,0-2.17-2.29v-4.46H11.73v-.55l1.07-.47.48-1.6h.66v1.74h2.17v.88H13.94v4.41a1.51,1.51,0,0,0,.32,1A1.12,1.12,0,0,0,15.14,284.14Z"/><path d="M16.47,277.45h1.22l1.64,4.27a16.35,16.35,0,0,1,.67,2.11h.05c.06-.23.18-.63.37-1.19s.81-2.29,1.86-5.19H23.5L20.28,286a4.25,4.25,0,0,1-1.12,1.79,2.37,2.37,0,0,1-1.57.53,4.58,4.58,0,0,1-1-.12v-.91a4,4,0,0,0,.84.08A1.73,1.73,0,0,0,19.08,286L19.5,285Z"/><rect class="cls-1" x="0.5" y="291.94" width="285" height="36"/><path class="cls-2" d="M286,328.44H0v-37H286Zm-285-1H285v-35H1Z"/><path d="M6.29,350.55a2.45,2.45,0,0,1-1,2.06,4.15,4.15,0,0,1-2.6.74A6.5,6.5,0,0,1,0,352.89v-1.12a7.12,7.12,0,0,0,1.34.41,7,7,0,0,0,1.44.15,2.89,2.89,0,0,0,1.75-.44,1.45,1.45,0,0,0,.59-1.23,1.58,1.58,0,0,0-.21-.85,2,2,0,0,0-.7-.61,9.82,9.82,0,0,0-1.49-.64,4.73,4.73,0,0,1-2-1.18,2.61,2.61,0,0,1-.6-1.78A2.22,2.22,0,0,1,1,343.76a3.61,3.61,0,0,1,2.3-.68,6.77,6.77,0,0,1,2.74.55l-.36,1a6.2,6.2,0,0,0-2.41-.52,2.33,2.33,0,0,0-1.44.4,1.31,1.31,0,0,0-.52,1.1,1.7,1.7,0,0,0,.19.85,1.8,1.8,0,0,0,.65.61,8,8,0,0,0,1.39.61,5.52,5.52,0,0,1,2.16,1.2A2.37,2.37,0,0,1,6.29,350.55Z"/><path d="M10.58,352.41a3.74,3.74,0,0,0,.58,0l.44-.09v.87a2.07,2.07,0,0,1-.54.15,4.16,4.16,0,0,1-.65.06q-2.17,0-2.17-2.29V346.6H7.17v-.55l1.07-.47.48-1.6h.66v1.74h2.17v.88H9.38V351a1.52,1.52,0,0,0,.32,1A1.12,1.12,0,0,0,10.58,352.41Z"/><path d="M17.71,353.21l-.23-1.07h-.05a3.15,3.15,0,0,1-1.12,1,3.42,3.42,0,0,1-1.39.25,2.5,2.5,0,0,1-1.75-.57,2.09,2.09,0,0,1-.63-1.63q0-2.27,3.63-2.38l1.27,0v-.46a1.9,1.9,0,0,0-.38-1.3,1.56,1.56,0,0,0-1.21-.42,5,5,0,0,0-2.12.57l-.35-.87a5.35,5.35,0,0,1,1.21-.47,5.28,5.28,0,0,1,1.32-.17,2.85,2.85,0,0,1,2,.59,2.48,2.48,0,0,1,.65,1.91v5.11Zm-2.56-.8a2.3,2.3,0,0,0,1.67-.58,2.15,2.15,0,0,0,.6-1.63v-.68l-1.13,0a4.12,4.12,0,0,0-2,.42,1.27,1.27,0,0,0-.6,1.16,1.17,1.17,0,0,0,.37.94A1.54,1.54,0,0,0,15.15,352.41Z"/><path d="M23.31,352.41a3.74,3.74,0,0,0,.58,0l.44-.09v.87a2.07,2.07,0,0,1-.54.15,4.16,4.16,0,0,1-.65.06q-2.17,0-2.17-2.29V346.6H19.9v-.55l1.07-.47.48-1.6h.66v1.74h2.17v.88H22.11V351a1.52,1.52,0,0,0,.32,1A1.12,1.12,0,0,0,23.31,352.41Z"/><path d="M29,353.35a3.44,3.44,0,0,1-2.62-1,3.91,3.91,0,0,1-1-2.81,4.35,4.35,0,0,1,.89-2.88,3,3,0,0,1,2.4-1.07,2.82,2.82,0,0,1,2.23.93,3.55,3.55,0,0,1,.82,2.44v.72H26.59a3,3,0,0,0,.67,2,2.3,2.3,0,0,0,1.78.68,6,6,0,0,0,2.39-.51v1a6,6,0,0,1-1.14.37A6.41,6.41,0,0,1,29,353.35Zm-.31-6.82a1.85,1.85,0,0,0-1.44.59,2.71,2.71,0,0,0-.63,1.63h3.92a2.49,2.49,0,0,0-.48-1.64A1.68,1.68,0,0,0,28.69,346.54Z"/><rect class="cls-1" x="0.5" y="360.21" width="100" height="36"/><path class="cls-2" d="M101,396.71H0v-37H101Zm-100-1h99v-35H1Z"/><path d="M6.87,421.91H0V421l5.3-8H.16v-1H6.72v.91l-5.3,8H6.87Z"/><path d="M8.54,412.39a.76.76,0,0,1,.19-.57.71.71,0,0,1,1,0,.74.74,0,0,1,.2.57.75.75,0,0,1-.2.57.69.69,0,0,1-1,0A.77.77,0,0,1,8.54,412.39Zm1.23,9.52H8.63v-7.49H9.77Z"/><path d="M15.66,422a3.23,3.23,0,0,1-1.34-.27,2.52,2.52,0,0,1-1-.83h-.08a10,10,0,0,1,.08,1.24v3.08H12.17V414.42h.92l.16,1h.05a2.64,2.64,0,0,1,1-.89,3.09,3.09,0,0,1,1.33-.27,2.77,2.77,0,0,1,2.3,1,5.43,5.43,0,0,1,0,5.72A2.77,2.77,0,0,1,15.66,422Zm-.16-6.8a2,2,0,0,0-1.66.64,3.27,3.27,0,0,0-.53,2v.25a3.75,3.75,0,0,0,.53,2.26,2,2,0,0,0,1.69.68,1.76,1.76,0,0,0,1.52-.79,3.73,3.73,0,0,0,.55-2.17A3.59,3.59,0,0,0,17,416,1.81,1.81,0,0,0,15.5,415.25Z"/><rect class="cls-1" x="0.5" y="428.91" width="100" height="36"/><path class="cls-2" d="M101,465.41H0v-37H101Zm-100-1h99v-35H1Z"/><path d="M3.92,142.82l2.67-5H7.84L4.5,143.94v3.88H3.33V144L0,137.83H1.27Z"/><path d="M15.51,144.07a4.13,4.13,0,0,1-.92,2.86A3.25,3.25,0,0,1,12,148a3.38,3.38,0,0,1-1.78-.47,3.12,3.12,0,0,1-1.2-1.35,4.71,4.71,0,0,1-.42-2.06,4.12,4.12,0,0,1,.92-2.85,3.24,3.24,0,0,1,2.54-1,3.17,3.17,0,0,1,2.5,1A4.11,4.11,0,0,1,15.51,144.07Zm-5.71,0a3.56,3.56,0,0,0,.57,2.19,2,2,0,0,0,1.69.75,2,2,0,0,0,1.69-.75,3.54,3.54,0,0,0,.58-2.19,3.48,3.48,0,0,0-.58-2.17,2,2,0,0,0-1.71-.74,2,2,0,0,0-1.68.73A3.52,3.52,0,0,0,9.8,144.07Z"/><path d="M18.57,140.33v4.86a2,2,0,0,0,.42,1.37,1.7,1.7,0,0,0,1.31.45,2.13,2.13,0,0,0,1.72-.64,3.24,3.24,0,0,0,.54-2.1v-3.94h1.13v7.49h-.94l-.16-1h-.06a2.26,2.26,0,0,1-1,.85,3.26,3.26,0,0,1-1.41.29,2.87,2.87,0,0,1-2-.65,2.77,2.77,0,0,1-.68-2.08v-4.9Z"/><path d="M29.51,140.19a4.43,4.43,0,0,1,.9.08l-.16,1.05a3.86,3.86,0,0,0-.82-.1,2,2,0,0,0-1.56.74,2.7,2.7,0,0,0-.65,1.84v4H26.09v-7.49H27l.13,1.39h.05a3.28,3.28,0,0,1,1-1.13A2.26,2.26,0,0,1,29.51,140.19Z"/><path d="M38.93,148a3.24,3.24,0,0,1-1.34-.27,2.52,2.52,0,0,1-1-.83H36.5a10,10,0,0,1,.08,1.24v3.08H35.44V140.33h.92l.16,1h.05a2.64,2.64,0,0,1,1-.89,3.09,3.09,0,0,1,1.33-.27,2.77,2.77,0,0,1,2.3,1,5.42,5.42,0,0,1,0,5.72A2.77,2.77,0,0,1,38.93,148Zm-.16-6.8a2,2,0,0,0-1.66.64,3.27,3.27,0,0,0-.53,2v.25a3.74,3.74,0,0,0,.53,2.26,2,2,0,0,0,1.69.68,1.76,1.76,0,0,0,1.52-.79,3.73,3.73,0,0,0,.55-2.17,3.59,3.59,0,0,0-.55-2.15A1.81,1.81,0,0,0,38.77,141.16Z"/><path d="M49.15,147.82V143a2,2,0,0,0-.42-1.37,1.7,1.7,0,0,0-1.31-.45,2.14,2.14,0,0,0-1.73.64,3.26,3.26,0,0,0-.54,2.11v3.92H44V137.18h1.13v3.22a6.93,6.93,0,0,1-.05,1h.07a2.31,2.31,0,0,1,1-.85,3.11,3.11,0,0,1,1.41-.31,2.89,2.89,0,0,1,2.06.65,2.75,2.75,0,0,1,.69,2.08v4.89Z"/><path d="M59.08,144.07a4.13,4.13,0,0,1-.92,2.86,3.25,3.25,0,0,1-2.55,1,3.38,3.38,0,0,1-1.78-.47,3.12,3.12,0,0,1-1.2-1.35,4.71,4.71,0,0,1-.42-2.06,4.12,4.12,0,0,1,.92-2.85,3.24,3.24,0,0,1,2.54-1,3.17,3.17,0,0,1,2.5,1A4.11,4.11,0,0,1,59.08,144.07Zm-5.71,0a3.56,3.56,0,0,0,.57,2.19,2.28,2.28,0,0,0,3.38,0,3.54,3.54,0,0,0,.58-2.19,3.48,3.48,0,0,0-.58-2.17,2,2,0,0,0-1.71-.74,2,2,0,0,0-1.68.73A3.52,3.52,0,0,0,53.38,144.07Z"/><path d="M66.2,147.82V143a2,2,0,0,0-.42-1.37,1.7,1.7,0,0,0-1.31-.45,2.16,2.16,0,0,0-1.72.64,3.21,3.21,0,0,0-.55,2.1v3.93H61.07v-7.49H62l.18,1h.05a2.32,2.32,0,0,1,1-.86,3.18,3.18,0,0,1,1.4-.3,2.85,2.85,0,0,1,2,.65,2.78,2.78,0,0,1,.68,2.09v4.89Z"/><path d="M72.83,148a3.44,3.44,0,0,1-2.62-1,3.92,3.92,0,0,1-1-2.81,4.34,4.34,0,0,1,.89-2.88,3,3,0,0,1,2.4-1.07,2.83,2.83,0,0,1,2.23.93,3.55,3.55,0,0,1,.82,2.44v.72H70.42a3,3,0,0,0,.67,2,2.31,2.31,0,0,0,1.78.68,6,6,0,0,0,2.39-.51v1a6,6,0,0,1-1.14.37A6.39,6.39,0,0,1,72.83,148Zm-.31-6.82a1.85,1.85,0,0,0-1.44.59,2.71,2.71,0,0,0-.63,1.63h3.92a2.49,2.49,0,0,0-.48-1.64A1.69,1.69,0,0,0,72.52,141.14Z"/><path d="M86.28,147.82V143a2,2,0,0,0-.42-1.37,1.7,1.7,0,0,0-1.31-.45,2.16,2.16,0,0,0-1.72.64,3.21,3.21,0,0,0-.55,2.1v3.93H81.16v-7.49h.92l.18,1h.05a2.32,2.32,0,0,1,1-.86,3.18,3.18,0,0,1,1.4-.3,2.85,2.85,0,0,1,2,.65,2.78,2.78,0,0,1,.68,2.09v4.89Z"/><path d="M90.82,140.33v4.86a2,2,0,0,0,.42,1.37,1.7,1.7,0,0,0,1.31.45,2.13,2.13,0,0,0,1.72-.64,3.25,3.25,0,0,0,.54-2.1v-3.94h1.13v7.49H95l-.16-1h-.06a2.26,2.26,0,0,1-1,.85,3.26,3.26,0,0,1-1.41.29,2.86,2.86,0,0,1-2-.65,2.76,2.76,0,0,1-.68-2.08v-4.9Z"/><path d="M107.89,147.82v-4.87a2,2,0,0,0-.38-1.34,1.48,1.48,0,0,0-1.19-.45,1.92,1.92,0,0,0-1.57.61,2.89,2.89,0,0,0-.51,1.87v4.18h-1.13v-4.87a2,2,0,0,0-.38-1.34,1.49,1.49,0,0,0-1.2-.45,1.85,1.85,0,0,0-1.56.64,3.46,3.46,0,0,0-.5,2.1v3.93H98.34v-7.49h.92l.18,1h.05a2.23,2.23,0,0,1,.91-.85,2.76,2.76,0,0,1,1.31-.31,2.22,2.22,0,0,1,2.3,1.27h.05a2.38,2.38,0,0,1,1-.93,3,3,0,0,1,1.45-.34,2.54,2.54,0,0,1,1.9.65,2.93,2.93,0,0,1,.63,2.09v4.89Z"/><path d="M114.85,140.21a2.79,2.79,0,0,1,2.29,1,5.4,5.4,0,0,1,0,5.72,2.77,2.77,0,0,1-2.29,1,3.24,3.24,0,0,1-1.34-.27,2.52,2.52,0,0,1-1-.83h-.08l-.24,1h-.81V137.18h1.13v2.58q0,.87-.05,1.56h.05A2.69,2.69,0,0,1,114.85,140.21Zm-.16,1a2,2,0,0,0-1.67.67,5.14,5.14,0,0,0,0,4.5,2,2,0,0,0,1.69.68,1.75,1.75,0,0,0,1.56-.76,3.92,3.92,0,0,0,.51-2.19,3.76,3.76,0,0,0-.51-2.18A1.82,1.82,0,0,0,114.69,141.16Z"/><path d="M123.11,148a3.45,3.45,0,0,1-2.62-1,3.92,3.92,0,0,1-1-2.81,4.35,4.35,0,0,1,.89-2.88,3,3,0,0,1,2.4-1.07,2.83,2.83,0,0,1,2.23.93,3.55,3.55,0,0,1,.82,2.44v.72H120.7a3,3,0,0,0,.67,2,2.31,2.31,0,0,0,1.78.68,6,6,0,0,0,2.39-.51v1a6,6,0,0,1-1.14.37A6.4,6.4,0,0,1,123.11,148Zm-.31-6.82a1.85,1.85,0,0,0-1.44.59,2.71,2.71,0,0,0-.63,1.63h3.92a2.5,2.5,0,0,0-.48-1.64A1.69,1.69,0,0,0,122.8,141.14Z"/><path d="M131.22,140.19a4.43,4.43,0,0,1,.9.08l-.16,1.05a3.86,3.86,0,0,0-.82-.1,2,2,0,0,0-1.56.74,2.7,2.7,0,0,0-.65,1.84v4H127.8v-7.49h.94l.13,1.39h.05a3.28,3.28,0,0,1,1-1.13A2.26,2.26,0,0,1,131.22,140.19Z"/><rect class="cls-1" x="0.5" y="85.82" width="285" height="36"/><path class="cls-2" d="M286,122.32H0v-37H286Zm-285-1H285v-35H1Z"/><path d="M7.66,216.61l-1.24-3.18h-4l-1.23,3.18H0l4-10h1l3.93,10ZM6,212.38l-1.16-3.1q-.23-.59-.46-1.44A13,13,0,0,1,4,209.29l-1.18,3.1Z"/><path d="M15.16,215.6H15.1a2.67,2.67,0,0,1-2.35,1.14,2.78,2.78,0,0,1-2.29-1,4.43,4.43,0,0,1-.82-2.86,4.5,4.5,0,0,1,.82-2.88,2.76,2.76,0,0,1,2.28-1,2.73,2.73,0,0,1,2.34,1.11h.09l0-.54,0-.53v-3h1.13v10.64h-.92Zm-2.27.19a2.07,2.07,0,0,0,1.68-.63,3.19,3.19,0,0,0,.52-2v-.24a3.76,3.76,0,0,0-.53-2.27,2,2,0,0,0-1.69-.68,1.74,1.74,0,0,0-1.53.78,3.86,3.86,0,0,0-.53,2.19,3.7,3.7,0,0,0,.53,2.17A1.78,1.78,0,0,0,12.89,215.79Z"/><path d="M23.74,215.6h-.06a2.67,2.67,0,0,1-2.35,1.14,2.78,2.78,0,0,1-2.29-1,4.43,4.43,0,0,1-.82-2.86A4.5,4.5,0,0,1,19,210a2.76,2.76,0,0,1,2.28-1,2.73,2.73,0,0,1,2.34,1.11h.09l0-.54,0-.53v-3h1.13v10.64h-.92Zm-2.27.19a2.07,2.07,0,0,0,1.68-.63,3.19,3.19,0,0,0,.52-2v-.24a3.76,3.76,0,0,0-.53-2.27,2,2,0,0,0-1.69-.68,1.74,1.74,0,0,0-1.53.78,3.86,3.86,0,0,0-.53,2.19,3.7,3.7,0,0,0,.53,2.17A1.78,1.78,0,0,0,21.47,215.79Z"/><path d="M30.64,209a4.45,4.45,0,0,1,.9.08l-.16,1.05a3.88,3.88,0,0,0-.82-.1,2,2,0,0,0-1.56.74,2.69,2.69,0,0,0-.65,1.84v4H27.22v-7.49h.94l.13,1.39h.05a3.27,3.27,0,0,1,1-1.13A2.26,2.26,0,0,1,30.64,209Z"/><path d="M36.1,216.75a3.45,3.45,0,0,1-2.62-1,3.92,3.92,0,0,1-1-2.81,4.34,4.34,0,0,1,.89-2.88,3,3,0,0,1,2.4-1.07,2.83,2.83,0,0,1,2.23.93,3.55,3.55,0,0,1,.82,2.44v.72H33.69a3,3,0,0,0,.67,2,2.31,2.31,0,0,0,1.78.68,6,6,0,0,0,2.39-.51v1a6,6,0,0,1-1.14.37A6.39,6.39,0,0,1,36.1,216.75Zm-.31-6.82a1.86,1.86,0,0,0-1.44.59,2.71,2.71,0,0,0-.63,1.63h3.92a2.5,2.5,0,0,0-.48-1.64A1.69,1.69,0,0,0,35.79,209.93Z"/><path d="M45.62,214.56a1.88,1.88,0,0,1-.78,1.61,3.66,3.66,0,0,1-2.19.57,4.75,4.75,0,0,1-2.32-.47v-1.05a5.63,5.63,0,0,0,1.16.43,4.86,4.86,0,0,0,1.19.16,2.7,2.7,0,0,0,1.37-.28,1,1,0,0,0,.1-1.61,6,6,0,0,0-1.48-.73,8,8,0,0,1-1.49-.68,2,2,0,0,1-.66-.66,1.72,1.72,0,0,1-.21-.88,1.68,1.68,0,0,1,.75-1.45,3.47,3.47,0,0,1,2-.53,6,6,0,0,1,2.37.49l-.4.92a5.44,5.44,0,0,0-2-.46,2.35,2.35,0,0,0-1.22.25.78.78,0,0,0-.41.7.85.85,0,0,0,.15.51,1.51,1.51,0,0,0,.5.4,11.13,11.13,0,0,0,1.31.55,4.9,4.9,0,0,1,1.8,1A1.72,1.72,0,0,1,45.62,214.56Z"/><path d="M52.3,214.56a1.88,1.88,0,0,1-.78,1.61,3.66,3.66,0,0,1-2.19.57,4.75,4.75,0,0,1-2.32-.47v-1.05a5.63,5.63,0,0,0,1.16.43,4.86,4.86,0,0,0,1.19.16,2.7,2.7,0,0,0,1.37-.28,1,1,0,0,0,.1-1.61,6,6,0,0,0-1.48-.73,8,8,0,0,1-1.49-.68,2,2,0,0,1-.66-.66A1.72,1.72,0,0,1,47,211a1.68,1.68,0,0,1,.75-1.45,3.47,3.47,0,0,1,2-.53,6,6,0,0,1,2.37.49l-.4.92a5.44,5.44,0,0,0-2-.46,2.35,2.35,0,0,0-1.22.25.78.78,0,0,0-.41.7.85.85,0,0,0,.15.51,1.51,1.51,0,0,0,.5.4,11.13,11.13,0,0,0,1.31.55,4.9,4.9,0,0,1,1.8,1A1.72,1.72,0,0,1,52.3,214.56Z"/><rect class="cls-1" x="0.5" y="223.61" width="584" height="36"/><path class="cls-2" d="M585,260.11H0v-37H585Zm-584-1H584v-35H1Z"/><path d="M0,79V69H1.16v8.94H5.57V79Z"/><path d="M11.7,79l-.23-1.07h-.05a3.15,3.15,0,0,1-1.12,1,3.39,3.39,0,0,1-1.39.25,2.5,2.5,0,0,1-1.75-.57,2.1,2.1,0,0,1-.63-1.63q0-2.27,3.63-2.38l1.27,0V74a1.9,1.9,0,0,0-.38-1.3,1.56,1.56,0,0,0-1.21-.42,4.94,4.94,0,0,0-2.12.57L7.38,72a5.32,5.32,0,0,1,1.21-.47,5.25,5.25,0,0,1,1.32-.17,2.85,2.85,0,0,1,2,.59,2.48,2.48,0,0,1,.65,1.91V79Zm-2.56-.8a2.31,2.31,0,0,0,1.66-.58A2.15,2.15,0,0,0,11.41,76v-.68l-1.13,0a4.13,4.13,0,0,0-2,.42,1.27,1.27,0,0,0-.6,1.16,1.17,1.17,0,0,0,.37.94A1.54,1.54,0,0,0,9.14,78.17Z"/><path d="M19.71,76.93a1.88,1.88,0,0,1-.78,1.61,3.67,3.67,0,0,1-2.19.57,4.75,4.75,0,0,1-2.32-.47V77.58a5.63,5.63,0,0,0,1.16.43,4.82,4.82,0,0,0,1.19.16,2.7,2.7,0,0,0,1.37-.28,1,1,0,0,0,.1-1.61,6,6,0,0,0-1.48-.73,8.06,8.06,0,0,1-1.49-.68,2,2,0,0,1-.66-.66,1.72,1.72,0,0,1-.21-.88,1.68,1.68,0,0,1,.75-1.45,3.47,3.47,0,0,1,2-.53,6,6,0,0,1,2.37.49l-.4.92a5.44,5.44,0,0,0-2-.46,2.36,2.36,0,0,0-1.22.25.78.78,0,0,0-.41.7.85.85,0,0,0,.15.51,1.5,1.5,0,0,0,.5.4,11.08,11.08,0,0,0,1.31.55,4.89,4.89,0,0,1,1.8,1A1.72,1.72,0,0,1,19.71,76.93Z"/><path d="M24,78.17a3.76,3.76,0,0,0,.58,0L25,78v.87a2.08,2.08,0,0,1-.54.15,4,4,0,0,1-.65.06q-2.17,0-2.17-2.29V72.36H20.57v-.55l1.07-.47.48-1.6h.66v1.74H25v.88H22.78v4.41a1.51,1.51,0,0,0,.32,1A1.12,1.12,0,0,0,24,78.17Z"/><path d="M35.27,79V74.13a2,2,0,0,0-.42-1.37,1.7,1.7,0,0,0-1.31-.45,2.15,2.15,0,0,0-1.72.64,3.21,3.21,0,0,0-.55,2.1V79H30.14V71.48h.92l.18,1h.05a2.31,2.31,0,0,1,1-.86,3.17,3.17,0,0,1,1.4-.3,2.85,2.85,0,0,1,2,.65,2.78,2.78,0,0,1,.68,2.09V79Z"/><path d="M43.34,79l-.23-1.07h-.05a3.15,3.15,0,0,1-1.12,1,3.39,3.39,0,0,1-1.39.25,2.5,2.5,0,0,1-1.75-.57,2.1,2.1,0,0,1-.63-1.63q0-2.27,3.63-2.38l1.27,0V74a1.9,1.9,0,0,0-.38-1.3,1.56,1.56,0,0,0-1.21-.42,4.94,4.94,0,0,0-2.12.57L39,72a5.32,5.32,0,0,1,1.21-.47,5.25,5.25,0,0,1,1.32-.17,2.85,2.85,0,0,1,2,.59,2.48,2.48,0,0,1,.65,1.91V79Zm-2.56-.8a2.31,2.31,0,0,0,1.66-.58A2.15,2.15,0,0,0,43,76v-.68l-1.13,0a4.13,4.13,0,0,0-2,.42,1.27,1.27,0,0,0-.6,1.16,1.17,1.17,0,0,0,.37.94A1.54,1.54,0,0,0,40.78,78.17Z"/><path d="M56.07,79V74.1a2,2,0,0,0-.38-1.34,1.48,1.48,0,0,0-1.19-.45,1.92,1.92,0,0,0-1.57.61,2.89,2.89,0,0,0-.51,1.87V79H51.29V74.1a2,2,0,0,0-.38-1.34,1.49,1.49,0,0,0-1.2-.45,1.85,1.85,0,0,0-1.56.64,3.46,3.46,0,0,0-.5,2.09V79H46.52V71.48h.92l.18,1h.05a2.22,2.22,0,0,1,.91-.85,2.77,2.77,0,0,1,1.31-.31,2.23,2.23,0,0,1,2.3,1.27h.05a2.39,2.39,0,0,1,1-.93,3,3,0,0,1,1.45-.34,2.54,2.54,0,0,1,1.9.65,2.92,2.92,0,0,1,.63,2.09V79Z"/><path d="M62.71,79.11a3.45,3.45,0,0,1-2.62-1,3.92,3.92,0,0,1-1-2.81A4.34,4.34,0,0,1,60,72.41a3,3,0,0,1,2.4-1.07,2.83,2.83,0,0,1,2.23.93,3.55,3.55,0,0,1,.82,2.44v.72H60.3a3,3,0,0,0,.67,2,2.31,2.31,0,0,0,1.78.68,6,6,0,0,0,2.39-.51v1A6,6,0,0,1,64,79,6.32,6.32,0,0,1,62.71,79.11Zm-.31-6.82a1.86,1.86,0,0,0-1.44.59,2.71,2.71,0,0,0-.63,1.63h3.92a2.5,2.5,0,0,0-.48-1.64A1.68,1.68,0,0,0,62.4,72.29Z"/><rect class="cls-1" x="0.5" y="154.97" width="285" height="36"/><path class="cls-2" d="M286,191.47H0v-37H286Zm-285-1H285v-35H1Z"/></g></g></svg>