<svg xmlns="http://www.w3.org/2000/svg" viewBox="0 0 585 259.44"><defs><style>.cls-1{fill:#fff;}.cls-2{fill:#ccc;}</style></defs><title>proposed</title><g id="Layer_2" data-name="Layer 2"><g id="Layer_1-2" data-name="Layer 1"><path d="M3,10.27H1.87V.28H7.45v1H3V5H7.18V6H3Z"/><path d="M8.83.75A.76.76,0,0,1,9,.18a.71.71,0,0,1,1,0,.74.74,0,0,1,.2.57.75.75,0,0,1-.2.57.66.66,0,0,1-.47.19A.66.66,0,0,1,9,1.32.77.77,0,0,1,8.83.75Zm1.23,9.52H8.93V2.78h1.13Z"/><path d="M15.89,2.65a4.44,4.44,0,0,1,.9.08l-.16,1.05a3.87,3.87,0,0,0-.82-.1,2,2,0,0,0-1.56.74,2.69,2.69,0,0,0-.65,1.84v4H12.47V2.78h.94l.13,1.39h.05A3.29,3.29,0,0,1,14.6,3,2.27,2.27,0,0,1,15.89,2.65Z"/><path d="M23,8.23a1.88,1.88,0,0,1-.78,1.61,3.67,3.67,0,0,1-2.19.57,4.76,4.76,0,0,1-2.32-.47V8.89a5.63,5.63,0,0,0,1.16.43,4.81,4.81,0,0,0,1.19.16,2.7,2.7,0,0,0,1.37-.28,1,1,0,0,0,.1-1.61,6,6,0,0,0-1.48-.73,8.05,8.05,0,0,1-1.49-.68,2,2,0,0,1-.66-.66,1.72,1.72,0,0,1-.22-.88,1.68,1.68,0,0,1,.75-1.45,3.48,3.48,0,0,1,2-.53,6,6,0,0,1,2.37.49l-.4.92a5.43,5.43,0,0,0-2-.46,2.36,2.36,0,0,0-1.22.25.78.78,0,0,0-.41.7.85.85,0,0,0,.15.51,1.5,1.5,0,0,0,.5.4A11.16,11.16,0,0,0,20.75,6a4.9,4.9,0,0,1,1.8,1A1.72,1.72,0,0,1,23,8.23Z"/><path d="M27.28,9.47a3.75,3.75,0,0,0,.58,0l.44-.09v.87a2.08,2.08,0,0,1-.54.15,4,4,0,0,1-.65.06q-2.17,0-2.17-2.29V3.66H23.87V3.12l1.07-.47L25.42,1h.66V2.78h2.17v.88H26.08V8.07a1.52,1.52,0,0,0,.32,1A1.12,1.12,0,0,0,27.28,9.47Z"/><path d="M38.57,10.27V5.43a2,2,0,0,0-.42-1.37,1.7,1.7,0,0,0-1.31-.45,2.15,2.15,0,0,0-1.72.64,3.21,3.21,0,0,0-.55,2.1v3.93H33.44V2.78h.92l.18,1h.05a2.31,2.31,0,0,1,1-.86,3.17,3.17,0,0,1,1.4-.3,2.85,2.85,0,0,1,2,.65,2.78,2.78,0,0,1,.68,2.09v4.89Z"/><path d="M46.64,10.27l-.23-1.07h-.05a3.15,3.15,0,0,1-1.12,1,3.4,3.4,0,0,1-1.39.25,2.5,2.5,0,0,1-1.75-.57,2.1,2.1,0,0,1-.63-1.63q0-2.27,3.63-2.38l1.27,0V5.32A1.9,1.9,0,0,0,46,4a1.56,1.56,0,0,0-1.21-.42,4.94,4.94,0,0,0-2.12.57l-.35-.87a5.31,5.31,0,0,1,1.21-.47,5.24,5.24,0,0,1,1.32-.17,2.85,2.85,0,0,1,2,.59,2.48,2.48,0,0,1,.65,1.91v5.11Zm-2.56-.8a2.31,2.31,0,0,0,1.66-.58,2.15,2.15,0,0,0,.6-1.63V6.59l-1.13,0a4.12,4.12,0,0,0-2,.42,1.27,1.27,0,0,0-.6,1.16,1.17,1.17,0,0,0,.37.94A1.54,1.54,0,0,0,44.08,9.47Z"/><path d="M59.37,10.27V5.4A2,2,0,0,0,59,4.06a1.48,1.48,0,0,0-1.19-.45,1.92,1.92,0,0,0-1.57.61,2.89,2.89,0,0,0-.51,1.87v4.18H54.59V5.4a2,2,0,0,0-.38-1.34A1.49,1.49,0,0,0,53,3.61a1.85,1.85,0,0,0-1.56.64A3.46,3.46,0,0,0,51,6.34v3.93H49.82V2.78h.92l.18,1H51A2.23,2.23,0,0,1,51.89,3a2.77,2.77,0,0,1,1.31-.31,2.23,2.23,0,0,1,2.3,1.27h.05a2.39,2.39,0,0,1,1-.93A3,3,0,0,1,58,2.65a2.54,2.54,0,0,1,1.9.65,2.92,2.92,0,0,1,.63,2.09v4.89Z"/><path d="M66,10.41a3.44,3.44,0,0,1-2.62-1,3.92,3.92,0,0,1-1-2.81,4.34,4.34,0,0,1,.89-2.88,3,3,0,0,1,2.4-1.07,2.83,2.83,0,0,1,2.23.93A3.55,3.55,0,0,1,68.76,6v.72H63.6a3,3,0,0,0,.67,2A2.3,2.3,0,0,0,66,9.42a6,6,0,0,0,2.39-.51v1a6,6,0,0,1-1.14.37A6.32,6.32,0,0,1,66,10.41ZM65.7,3.6a1.85,1.85,0,0,0-1.44.59,2.71,2.71,0,0,0-.63,1.63h3.92a2.49,2.49,0,0,0-.48-1.64A1.68,1.68,0,0,0,65.7,3.6Z"/><rect class="cls-1" x="0.5" y="17.27" width="285" height="36"/><path class="cls-2" d="M286,53.77H0v-37H286Zm-285-1H285v-35H1Z"/><path d="M6.15,206.84a3.27,3.27,0,0,0-2.6,1.1,4.43,4.43,0,0,0-1,3,4.51,4.51,0,0,0,.92,3A3.27,3.27,0,0,0,6.14,215a9,9,0,0,0,2.39-.38v1a7.35,7.35,0,0,1-2.56.39,4.34,4.34,0,0,1-3.41-1.34,5.52,5.52,0,0,1-1.2-3.81,6,6,0,0,1,.58-2.71,4.14,4.14,0,0,1,1.67-1.79,5,5,0,0,1,2.57-.63,6.19,6.19,0,0,1,2.75.57l-.49,1A5.3,5.3,0,0,0,6.15,206.84Z"/><path d="M10.44,206.42a.76.76,0,0,1,.19-.57.71.71,0,0,1,1,0,.74.74,0,0,1,.2.57.75.75,0,0,1-.2.57.66.66,0,0,1-.47.19.65.65,0,0,1-.48-.19A.77.77,0,0,1,10.44,206.42Zm1.23,9.52H10.54v-7.49h1.13Z"/><path d="M16.5,215.14a3.63,3.63,0,0,0,.58,0l.44-.09v.87A2.08,2.08,0,0,1,17,216a4,4,0,0,1-.65.06q-2.17,0-2.17-2.29v-4.46H13.08v-.55l1.07-.47.48-1.6h.66v1.74h2.17v.88H15.29v4.41a1.52,1.52,0,0,0,.32,1A1.12,1.12,0,0,0,16.5,215.14Z"/><path d="M17.83,208.45H19l1.64,4.27a16.19,16.19,0,0,1,.67,2.11h.05q.09-.35.37-1.19t1.86-5.19h1.22L21.64,217a4.25,4.25,0,0,1-1.12,1.79,2.38,2.38,0,0,1-1.57.53,4.59,4.59,0,0,1-1-.12v-.91a4,4,0,0,0,.84.08A1.73,1.73,0,0,0,20.43,217l.42-1.07Z"/><rect class="cls-1" x="0.5" y="222.94" width="285" height="36"/><path class="cls-2" d="M286,259.44H0v-37H286Zm-285-1H285v-35H1Z"/><path d="M306.51,213.28a2.45,2.45,0,0,1-1,2.06,4.15,4.15,0,0,1-2.6.74,6.52,6.52,0,0,1-2.73-.46V214.5a7.25,7.25,0,0,0,1.34.41,7.09,7.09,0,0,0,1.44.15,2.9,2.9,0,0,0,1.75-.44,1.45,1.45,0,0,0,.59-1.23,1.58,1.58,0,0,0-.21-.85,1.94,1.94,0,0,0-.7-.61,9.61,9.61,0,0,0-1.49-.64,4.76,4.76,0,0,1-2-1.18,2.61,2.61,0,0,1-.6-1.78,2.22,2.22,0,0,1,.87-1.84,3.61,3.61,0,0,1,2.3-.68,6.76,6.76,0,0,1,2.74.55l-.36,1a6.19,6.19,0,0,0-2.41-.52,2.33,2.33,0,0,0-1.44.4,1.31,1.31,0,0,0-.52,1.1,1.69,1.69,0,0,0,.19.85,1.79,1.79,0,0,0,.65.61,8,8,0,0,0,1.39.61,5.49,5.49,0,0,1,2.16,1.2A2.37,2.37,0,0,1,306.51,213.28Z"/><path d="M310.81,215.14a3.63,3.63,0,0,0,.58,0l.44-.09v.87a2.08,2.08,0,0,1-.54.15,4,4,0,0,1-.65.06q-2.17,0-2.17-2.29v-4.46H307.4v-.55l1.07-.47.48-1.6h.66v1.74h2.17v.88H309.6v4.41a1.52,1.52,0,0,0,.32,1A1.12,1.12,0,0,0,310.81,215.14Z"/><path d="M317.94,215.94l-.23-1.07h-.05a3.15,3.15,0,0,1-1.12,1,3.4,3.4,0,0,1-1.39.25,2.5,2.5,0,0,1-1.75-.57,2.1,2.1,0,0,1-.63-1.63q0-2.27,3.63-2.38l1.27,0V211a1.9,1.9,0,0,0-.38-1.3,1.56,1.56,0,0,0-1.21-.42,4.94,4.94,0,0,0-2.12.57l-.35-.87a5.45,5.45,0,0,1,2.54-.64,2.85,2.85,0,0,1,2,.59,2.48,2.48,0,0,1,.65,1.91v5.11Zm-2.56-.8a2.31,2.31,0,0,0,1.66-.58,2.15,2.15,0,0,0,.6-1.63v-.68l-1.13,0a4.12,4.12,0,0,0-2,.42,1.27,1.27,0,0,0-.6,1.16,1.17,1.17,0,0,0,.37.94A1.55,1.55,0,0,0,315.37,215.14Z"/><path d="M323.54,215.14a3.63,3.63,0,0,0,.58,0l.44-.09v.87a2.08,2.08,0,0,1-.54.15,4,4,0,0,1-.65.06q-2.17,0-2.17-2.29v-4.46h-1.07v-.55l1.07-.47.48-1.6h.66v1.74h2.17v.88h-2.17v4.41a1.52,1.52,0,0,0,.32,1A1.12,1.12,0,0,0,323.54,215.14Z"/><path d="M329.22,216.08a3.44,3.44,0,0,1-2.62-1,3.92,3.92,0,0,1-1-2.81,4.34,4.34,0,0,1,.89-2.88,3,3,0,0,1,2.4-1.07,2.83,2.83,0,0,1,2.23.93,3.55,3.55,0,0,1,.82,2.44v.72h-5.16a3,3,0,0,0,.67,2,2.31,2.31,0,0,0,1.78.68,6,6,0,0,0,2.39-.51v1a6,6,0,0,1-1.14.37A6.39,6.39,0,0,1,329.22,216.08Zm-.31-6.82a1.85,1.85,0,0,0-1.44.59,2.71,2.71,0,0,0-.63,1.63h3.92a2.5,2.5,0,0,0-.48-1.64A1.69,1.69,0,0,0,328.92,209.26Z"/><rect class="cls-1" x="299.5" y="222.94" width="100" height="36"/><path class="cls-2" d="M400,259.44H299v-37H400Zm-100-1h99v-35H300Z"/><path d="M421.69,215.94h-6.87V215l5.3-8H415v-1h6.56v.91l-5.3,8h5.46Z"/><path d="M423.36,206.42a.76.76,0,0,1,.19-.57.71.71,0,0,1,1,0,.74.74,0,0,1,.2.57.75.75,0,0,1-.2.57.66.66,0,0,1-.47.19.65.65,0,0,1-.48-.19A.77.77,0,0,1,423.36,206.42Zm1.23,9.52h-1.13v-7.49h1.13Z"/><path d="M430.48,216.08a3.23,3.23,0,0,1-1.34-.27,2.51,2.51,0,0,1-1-.83H428a10,10,0,0,1,.08,1.24v3.08H427V208.45h.92l.16,1h.05a2.63,2.63,0,0,1,1-.89,3.09,3.09,0,0,1,1.33-.27,2.77,2.77,0,0,1,2.3,1,5.42,5.42,0,0,1,0,5.72A2.77,2.77,0,0,1,430.48,216.08Zm-.16-6.8a2,2,0,0,0-1.66.64,3.27,3.27,0,0,0-.53,2v.25a3.75,3.75,0,0,0,.53,2.26,2,2,0,0,0,1.69.68,1.76,1.76,0,0,0,1.52-.79,3.73,3.73,0,0,0,.55-2.17,3.59,3.59,0,0,0-.55-2.15A1.81,1.81,0,0,0,430.32,209.28Z"/><rect class="cls-1" x="414.26" y="222.94" width="100" height="36"/><path class="cls-2" d="M514.75,259.44h-101v-37h101Zm-100-1h99v-35h-99Z"/><path d="M4.42,73.82l2.67-5H8.34L5,74.94v3.88H3.83V75L.5,68.83H1.77Z"/><path d="M16,75.07a4.13,4.13,0,0,1-.92,2.86,3.25,3.25,0,0,1-2.55,1,3.38,3.38,0,0,1-1.78-.47,3.11,3.11,0,0,1-1.2-1.35,4.72,4.72,0,0,1-.42-2.06A4.13,4.13,0,0,1,10,72.21a3.24,3.24,0,0,1,2.54-1,3.17,3.17,0,0,1,2.5,1A4.11,4.11,0,0,1,16,75.07Zm-5.71,0a3.56,3.56,0,0,0,.57,2.19,2,2,0,0,0,1.69.75,2,2,0,0,0,1.69-.75,3.54,3.54,0,0,0,.58-2.19,3.48,3.48,0,0,0-.58-2.17,2,2,0,0,0-1.71-.74,2,2,0,0,0-1.68.73A3.52,3.52,0,0,0,10.3,75.07Z"/><path d="M19.07,71.33v4.86a2,2,0,0,0,.42,1.37,1.7,1.7,0,0,0,1.31.45,2.13,2.13,0,0,0,1.72-.64,3.25,3.25,0,0,0,.54-2.1V71.33h1.13v7.49h-.94l-.16-1H23a2.26,2.26,0,0,1-1,.85,3.26,3.26,0,0,1-1.41.29,2.87,2.87,0,0,1-2-.65,2.77,2.77,0,0,1-.68-2.08v-4.9Z"/><path d="M30,71.19a4.44,4.44,0,0,1,.9.08l-.16,1.05a3.86,3.86,0,0,0-.82-.1,2,2,0,0,0-1.56.74,2.69,2.69,0,0,0-.65,1.84v4H26.59V71.33h.94l.13,1.39h.05a3.29,3.29,0,0,1,1-1.13A2.27,2.27,0,0,1,30,71.19Z"/><path d="M39.43,79a3.25,3.25,0,0,1-1.34-.27,2.51,2.51,0,0,1-1-.83H37a10,10,0,0,1,.08,1.24v3.08H35.94V71.33h.92l.16,1h.05a2.64,2.64,0,0,1,1-.89,3.1,3.1,0,0,1,1.33-.27,2.77,2.77,0,0,1,2.3,1,5.42,5.42,0,0,1,0,5.72A2.77,2.77,0,0,1,39.43,79Zm-.16-6.8a2,2,0,0,0-1.66.63,3.27,3.27,0,0,0-.53,2v.25a3.75,3.75,0,0,0,.53,2.26,2,2,0,0,0,1.69.68,1.76,1.76,0,0,0,1.52-.79,3.73,3.73,0,0,0,.55-2.17,3.59,3.59,0,0,0-.55-2.15A1.81,1.81,0,0,0,39.27,72.16Z"/><path d="M49.65,78.82V74a2,2,0,0,0-.42-1.37,1.7,1.7,0,0,0-1.31-.45,2.14,2.14,0,0,0-1.73.64,3.25,3.25,0,0,0-.54,2.11v3.92H44.52V68.18h1.13V71.4a7,7,0,0,1-.05,1h.07a2.32,2.32,0,0,1,1-.85A3.09,3.09,0,0,1,48,71.2a2.89,2.89,0,0,1,2.06.65,2.75,2.75,0,0,1,.69,2.08v4.89Z"/><path d="M59.58,75.07a4.13,4.13,0,0,1-.92,2.86,3.25,3.25,0,0,1-2.55,1,3.38,3.38,0,0,1-1.78-.47,3.11,3.11,0,0,1-1.2-1.35,4.72,4.72,0,0,1-.42-2.06,4.13,4.13,0,0,1,.92-2.85,3.24,3.24,0,0,1,2.54-1,3.17,3.17,0,0,1,2.5,1A4.11,4.11,0,0,1,59.58,75.07Zm-5.71,0a3.56,3.56,0,0,0,.57,2.19,2.28,2.28,0,0,0,3.38,0,3.54,3.54,0,0,0,.58-2.19,3.48,3.48,0,0,0-.58-2.17,2,2,0,0,0-1.71-.74,2,2,0,0,0-1.68.73A3.52,3.52,0,0,0,53.88,75.07Z"/><path d="M66.7,78.82V74a2,2,0,0,0-.42-1.37A1.7,1.7,0,0,0,65,72.16a2.15,2.15,0,0,0-1.72.63,3.21,3.21,0,0,0-.55,2.1v3.93H61.57V71.33h.92l.18,1h.05a2.32,2.32,0,0,1,1-.86,3.17,3.17,0,0,1,1.4-.3,2.85,2.85,0,0,1,2,.65,2.78,2.78,0,0,1,.68,2.09v4.89Z"/><path d="M73.33,79a3.44,3.44,0,0,1-2.62-1,3.91,3.91,0,0,1-1-2.81,4.35,4.35,0,0,1,.89-2.88A3,3,0,0,1,73,71.19a2.82,2.82,0,0,1,2.23.93,3.55,3.55,0,0,1,.82,2.44v.72H70.92a3,3,0,0,0,.67,2,2.31,2.31,0,0,0,1.78.68,6,6,0,0,0,2.39-.51v1a6,6,0,0,1-1.14.37A6.4,6.4,0,0,1,73.33,79ZM73,72.14a1.85,1.85,0,0,0-1.44.59A2.71,2.71,0,0,0,71,74.36h3.92a2.5,2.5,0,0,0-.48-1.64A1.68,1.68,0,0,0,73,72.14Z"/><path d="M86.78,78.82V74a2,2,0,0,0-.42-1.37,1.7,1.7,0,0,0-1.31-.45,2.15,2.15,0,0,0-1.72.63,3.21,3.21,0,0,0-.55,2.1v3.93H81.66V71.33h.92l.18,1h.05a2.32,2.32,0,0,1,1-.86,3.17,3.17,0,0,1,1.4-.3,2.85,2.85,0,0,1,2,.65,2.78,2.78,0,0,1,.68,2.09v4.89Z"/><path d="M91.32,71.33v4.86a2,2,0,0,0,.42,1.37A1.7,1.7,0,0,0,93,78a2.13,2.13,0,0,0,1.72-.64,3.25,3.25,0,0,0,.54-2.1V71.33h1.13v7.49H95.5l-.16-1h-.06a2.26,2.26,0,0,1-1,.85,3.26,3.26,0,0,1-1.41.29,2.87,2.87,0,0,1-2-.65,2.77,2.77,0,0,1-.68-2.08v-4.9Z"/><path d="M108.39,78.82V73.95A2,2,0,0,0,108,72.6a1.48,1.48,0,0,0-1.19-.45,1.92,1.92,0,0,0-1.57.61,2.89,2.89,0,0,0-.51,1.87v4.18h-1.13V73.95a2,2,0,0,0-.38-1.34,1.49,1.49,0,0,0-1.2-.45,1.85,1.85,0,0,0-1.56.64,3.46,3.46,0,0,0-.5,2.1v3.93H98.84V71.33h.92l.18,1H100a2.23,2.23,0,0,1,.91-.85,2.77,2.77,0,0,1,1.31-.31,2.23,2.23,0,0,1,2.3,1.27h.05a2.39,2.39,0,0,1,1-.93,3,3,0,0,1,1.45-.34,2.54,2.54,0,0,1,1.9.65,2.92,2.92,0,0,1,.63,2.09v4.89Z"/><path d="M115.35,71.2a2.78,2.78,0,0,1,2.29,1,5.4,5.4,0,0,1,0,5.72,2.77,2.77,0,0,1-2.29,1,3.25,3.25,0,0,1-1.34-.27,2.51,2.51,0,0,1-1-.83h-.08l-.24,1h-.81V68.18H113v2.58q0,.87-.05,1.56H113A2.69,2.69,0,0,1,115.35,71.2Zm-.16,1a2,2,0,0,0-1.67.67,5.14,5.14,0,0,0,0,4.5,2,2,0,0,0,1.69.68,1.75,1.75,0,0,0,1.56-.76,3.92,3.92,0,0,0,.51-2.19,3.77,3.77,0,0,0-.51-2.18A1.82,1.82,0,0,0,115.19,72.16Z"/><path d="M123.61,79a3.44,3.44,0,0,1-2.62-1,3.91,3.91,0,0,1-1-2.81,4.35,4.35,0,0,1,.89-2.88,3,3,0,0,1,2.4-1.07,2.82,2.82,0,0,1,2.23.93,3.55,3.55,0,0,1,.82,2.44v.72H121.2a3,3,0,0,0,.67,2,2.31,2.31,0,0,0,1.78.68,6,6,0,0,0,2.39-.51v1a6,6,0,0,1-1.14.37A6.4,6.4,0,0,1,123.61,79Zm-.31-6.81a1.85,1.85,0,0,0-1.44.59,2.71,2.71,0,0,0-.63,1.63h3.92a2.5,2.5,0,0,0-.48-1.64A1.68,1.68,0,0,0,123.3,72.14Z"/><path d="M131.72,71.19a4.44,4.44,0,0,1,.9.08l-.16,1.05a3.86,3.86,0,0,0-.82-.1,2,2,0,0,0-1.56.74,2.69,2.69,0,0,0-.65,1.84v4H128.3V71.33h.94l.13,1.39h.05a3.29,3.29,0,0,1,1-1.13A2.27,2.27,0,0,1,131.72,71.19Z"/><rect class="cls-1" x="0.5" y="85.82" width="285" height="36"/><path class="cls-2" d="M286,122.32H0v-37H286Zm-285-1H285v-35H1Z"/><path d="M8.16,147.61l-1.24-3.18h-4l-1.23,3.18H.5l4-10h1l3.93,10Zm-1.61-4.22-1.16-3.1q-.23-.59-.46-1.44a12.84,12.84,0,0,1-.43,1.44l-1.18,3.1Z"/><path d="M15.66,146.6H15.6a2.66,2.66,0,0,1-2.35,1.14,2.78,2.78,0,0,1-2.29-1,4.42,4.42,0,0,1-.82-2.86A4.5,4.5,0,0,1,11,141a2.76,2.76,0,0,1,2.28-1,2.72,2.72,0,0,1,2.34,1.11h.09l0-.54,0-.53v-3h1.13v10.64h-.92Zm-2.27.19a2.07,2.07,0,0,0,1.69-.63,3.2,3.2,0,0,0,.52-2v-.24a3.76,3.76,0,0,0-.53-2.27,2,2,0,0,0-1.69-.68,1.74,1.74,0,0,0-1.53.78,3.86,3.86,0,0,0-.53,2.19,3.7,3.7,0,0,0,.53,2.17A1.78,1.78,0,0,0,13.39,146.79Z"/><path d="M24.24,146.6h-.06a2.66,2.66,0,0,1-2.35,1.14,2.78,2.78,0,0,1-2.29-1,4.42,4.42,0,0,1-.82-2.86,4.5,4.5,0,0,1,.82-2.88,2.76,2.76,0,0,1,2.28-1,2.72,2.72,0,0,1,2.34,1.11h.09l0-.54,0-.53v-3h1.13v10.64h-.92Zm-2.27.19a2.07,2.07,0,0,0,1.69-.63,3.2,3.2,0,0,0,.52-2v-.24a3.76,3.76,0,0,0-.53-2.27,2,2,0,0,0-1.69-.68,1.74,1.74,0,0,0-1.53.78,3.86,3.86,0,0,0-.53,2.19,3.7,3.7,0,0,0,.53,2.17A1.78,1.78,0,0,0,22,146.79Z"/><path d="M31.14,140a4.44,4.44,0,0,1,.9.08l-.16,1.05a3.87,3.87,0,0,0-.82-.1,2,2,0,0,0-1.56.74,2.69,2.69,0,0,0-.65,1.84v4H27.72v-7.49h.94l.13,1.39h.05a3.3,3.3,0,0,1,1-1.13A2.27,2.27,0,0,1,31.14,140Z"/><path d="M36.6,147.74a3.44,3.44,0,0,1-2.62-1,3.92,3.92,0,0,1-1-2.81,4.34,4.34,0,0,1,.89-2.88,3,3,0,0,1,2.4-1.07,2.82,2.82,0,0,1,2.23.93,3.55,3.55,0,0,1,.82,2.44v.72H34.19a3,3,0,0,0,.67,2,2.3,2.3,0,0,0,1.78.68,6,6,0,0,0,2.39-.51v1a6,6,0,0,1-1.14.37A6.4,6.4,0,0,1,36.6,147.74Zm-.31-6.82a1.85,1.85,0,0,0-1.44.59,2.71,2.71,0,0,0-.63,1.63h3.92a2.49,2.49,0,0,0-.48-1.64A1.68,1.68,0,0,0,36.29,140.93Z"/><path d="M46.12,145.56a1.88,1.88,0,0,1-.78,1.61,3.66,3.66,0,0,1-2.19.57,4.76,4.76,0,0,1-2.32-.47v-1.05a5.58,5.58,0,0,0,1.16.43,4.81,4.81,0,0,0,1.19.16,2.71,2.71,0,0,0,1.37-.28,1,1,0,0,0,.1-1.61,6,6,0,0,0-1.48-.74,8.05,8.05,0,0,1-1.49-.68,2,2,0,0,1-.66-.66,1.72,1.72,0,0,1-.22-.88,1.68,1.68,0,0,1,.75-1.45,3.47,3.47,0,0,1,2-.53,6,6,0,0,1,2.37.49l-.4.92a5.43,5.43,0,0,0-2-.46,2.36,2.36,0,0,0-1.22.25.78.78,0,0,0-.41.7.85.85,0,0,0,.15.51,1.5,1.5,0,0,0,.5.4,11,11,0,0,0,1.31.55,4.91,4.91,0,0,1,1.8,1A1.73,1.73,0,0,1,46.12,145.56Z"/><path d="M52.8,145.56a1.88,1.88,0,0,1-.78,1.61,3.66,3.66,0,0,1-2.19.57,4.76,4.76,0,0,1-2.32-.47v-1.05a5.58,5.58,0,0,0,1.16.43,4.81,4.81,0,0,0,1.19.16,2.71,2.71,0,0,0,1.37-.28,1,1,0,0,0,.1-1.61,6,6,0,0,0-1.48-.74,8.05,8.05,0,0,1-1.49-.68,2,2,0,0,1-.66-.66,1.72,1.72,0,0,1-.22-.88,1.68,1.68,0,0,1,.75-1.45,3.47,3.47,0,0,1,2-.53,6,6,0,0,1,2.37.49l-.4.92a5.43,5.43,0,0,0-2-.46,2.36,2.36,0,0,0-1.22.25.78.78,0,0,0-.41.7.85.85,0,0,0,.15.51,1.5,1.5,0,0,0,.5.4,11,11,0,0,0,1.31.55,4.91,4.91,0,0,1,1.8,1A1.73,1.73,0,0,1,52.8,145.56Z"/><rect class="cls-1" x="0.5" y="154.61" width="584" height="36"/><path class="cls-2" d="M585,191.11H0v-37H585Zm-584-1H584v-35H1Z"/><path d="M300.87,10.27V.28H302V9.22h4.41v1.05Z"/><path d="M312.58,10.27l-.23-1.07h-.05a3.15,3.15,0,0,1-1.12,1,3.4,3.4,0,0,1-1.39.25A2.5,2.5,0,0,1,308,9.84a2.1,2.1,0,0,1-.63-1.63q0-2.27,3.63-2.38l1.27,0V5.32a1.9,1.9,0,0,0-.38-1.3,1.56,1.56,0,0,0-1.21-.42,4.94,4.94,0,0,0-2.12.57l-.35-.87a5.31,5.31,0,0,1,1.21-.47,5.24,5.24,0,0,1,1.32-.17,2.85,2.85,0,0,1,2,.59,2.48,2.48,0,0,1,.65,1.91v5.11ZM310,9.47a2.31,2.31,0,0,0,1.66-.58,2.15,2.15,0,0,0,.6-1.63V6.59l-1.13,0a4.12,4.12,0,0,0-2,.42,1.27,1.27,0,0,0-.6,1.16,1.17,1.17,0,0,0,.37.94A1.54,1.54,0,0,0,310,9.47Z"/><path d="M320.59,8.23a1.88,1.88,0,0,1-.78,1.61,3.67,3.67,0,0,1-2.19.57,4.76,4.76,0,0,1-2.32-.47V8.89a5.63,5.63,0,0,0,1.16.43,4.81,4.81,0,0,0,1.19.16A2.7,2.7,0,0,0,319,9.19a1,1,0,0,0,.1-1.61,6,6,0,0,0-1.48-.73,8.05,8.05,0,0,1-1.49-.68,2,2,0,0,1-.66-.66,1.72,1.72,0,0,1-.22-.88A1.68,1.68,0,0,1,316,3.17a3.48,3.48,0,0,1,2-.53,6,6,0,0,1,2.37.49l-.4.92a5.43,5.43,0,0,0-2-.46,2.36,2.36,0,0,0-1.22.25.78.78,0,0,0-.41.7.85.85,0,0,0,.15.51,1.5,1.5,0,0,0,.5.4,11.16,11.16,0,0,0,1.31.55,4.9,4.9,0,0,1,1.8,1A1.72,1.72,0,0,1,320.59,8.23Z"/><path d="M324.85,9.47a3.75,3.75,0,0,0,.58,0l.44-.09v.87a2.08,2.08,0,0,1-.54.15,4,4,0,0,1-.65.06q-2.17,0-2.17-2.29V3.66h-1.07V3.12l1.07-.47L323,1h.66V2.78h2.17v.88h-2.17V8.07a1.52,1.52,0,0,0,.32,1A1.12,1.12,0,0,0,324.85,9.47Z"/><path d="M336.14,10.27V5.43a2,2,0,0,0-.42-1.37,1.7,1.7,0,0,0-1.31-.45,2.15,2.15,0,0,0-1.72.64,3.21,3.21,0,0,0-.55,2.1v3.93H331V2.78h.92l.18,1h.05a2.31,2.31,0,0,1,1-.86,3.17,3.17,0,0,1,1.4-.3,2.85,2.85,0,0,1,2,.65,2.78,2.78,0,0,1,.68,2.09v4.89Z"/><path d="M344.21,10.27,344,9.21h-.05a3.15,3.15,0,0,1-1.12,1,3.4,3.4,0,0,1-1.39.25,2.5,2.5,0,0,1-1.75-.57A2.1,2.1,0,0,1,339,8.2q0-2.27,3.63-2.38l1.27,0V5.32a1.9,1.9,0,0,0-.38-1.3,1.56,1.56,0,0,0-1.21-.42,4.94,4.94,0,0,0-2.12.57l-.35-.87a5.31,5.31,0,0,1,1.21-.47,5.24,5.24,0,0,1,1.32-.17,2.85,2.85,0,0,1,2,.59,2.48,2.48,0,0,1,.65,1.91v5.11Zm-2.56-.8a2.31,2.31,0,0,0,1.66-.58,2.15,2.15,0,0,0,.6-1.63V6.59l-1.13,0a4.12,4.12,0,0,0-2,.42,1.27,1.27,0,0,0-.6,1.16,1.17,1.17,0,0,0,.37.94A1.54,1.54,0,0,0,341.65,9.47Z"/><path d="M356.94,10.27V5.4a2,2,0,0,0-.38-1.34,1.48,1.48,0,0,0-1.19-.45,1.92,1.92,0,0,0-1.57.61,2.89,2.89,0,0,0-.51,1.87v4.18h-1.13V5.4a2,2,0,0,0-.38-1.34,1.49,1.49,0,0,0-1.2-.45,1.85,1.85,0,0,0-1.56.64,3.46,3.46,0,0,0-.5,2.09v3.93h-1.13V2.78h.92l.18,1h.05a2.23,2.23,0,0,1,.91-.85,2.77,2.77,0,0,1,1.31-.31,2.23,2.23,0,0,1,2.3,1.27h.05a2.39,2.39,0,0,1,1-.93,3,3,0,0,1,1.45-.34,2.54,2.54,0,0,1,1.9.65,2.92,2.92,0,0,1,.63,2.09v4.89Z"/><path d="M363.58,10.41a3.44,3.44,0,0,1-2.62-1,3.92,3.92,0,0,1-1-2.81,4.34,4.34,0,0,1,.89-2.88,3,3,0,0,1,2.4-1.07,2.83,2.83,0,0,1,2.23.93A3.55,3.55,0,0,1,366.34,6v.72h-5.16a3,3,0,0,0,.67,2,2.3,2.3,0,0,0,1.78.68A6,6,0,0,0,366,8.91v1a6,6,0,0,1-1.14.37A6.32,6.32,0,0,1,363.58,10.41Zm-.31-6.82a1.85,1.85,0,0,0-1.44.59,2.71,2.71,0,0,0-.63,1.63h3.92a2.49,2.49,0,0,0-.48-1.64A1.68,1.68,0,0,0,363.27,3.6Z"/><rect class="cls-1" x="299.5" y="17.27" width="285" height="36"/><path class="cls-2" d="M585,53.77H299v-37H585Zm-285-1H584v-35H300Z"/></g></g></svg>