<svg xmlns="http://www.w3.org/2000/svg" viewBox="0 0 302.29 70.56"><title>shrug</title><g id="Layer_2" data-name="Layer 2"><g id="Layer_1-2" data-name="Layer 1"><path d="M36.42,4.46H0V0H36.42Z"/><path d="M42.75,7.77,62,59.17H56.14L37,7.77Z"/><path d="M95.06,70.24H62.51V65.64H95.06Z"/><path d="M97.8,39.45A54.48,54.48,0,0,1,100.53,22a43.33,43.33,0,0,1,7.86-14.24h5.7a49.57,49.57,0,0,0-7.61,14.91,55.43,55.43,0,0,0-2.55,16.7,53.29,53.29,0,0,0,2.6,16.49A51.19,51.19,0,0,0,114,70.56h-5.62a41.43,41.43,0,0,1-7.87-14A53.05,53.05,0,0,1,97.8,39.45Z"/><path d="M126.6,9.12a87.89,87.89,0,0,1,6.91,19.15l-4.82,1.58a96.33,96.33,0,0,0-6.77-19.23Zm53.93.86c-.22.65-.94.94-1.87.94-7.56,25.42-19.37,41-41.91,50.84a33.94,33.94,0,0,0-3.46-4c22-9.29,33.34-23.76,40.47-50ZM149.42,5a120.86,120.86,0,0,1,3.82,20.45l-5.11.79a118.46,118.46,0,0,0-3.74-20.38Z"/><path d="M204.49,39.45a53,53,0,0,1-2.72,17.23,41.21,41.21,0,0,1-7.86,13.89h-5.62a50.66,50.66,0,0,0,7.49-14.68,53.46,53.46,0,0,0,2.6-16.51,55.44,55.44,0,0,0-2.55-16.7,49.58,49.58,0,0,0-7.61-14.91h5.7a43.14,43.14,0,0,1,7.88,14.29A54.74,54.74,0,0,1,204.49,39.45Z"/><path d="M239.79,70.24H207.23V65.64h32.55Z"/><path d="M265.34,7.77l-19.16,51.4h-5.84l19.16-51.4Z"/><path d="M302.29,4.46H265.87V0h36.42Z"/></g></g></svg>