<svg xmlns="http://www.w3.org/2000/svg" viewBox="0 0 617 261.26"><defs><style>.cls-1{fill:#fff;}.cls-2{fill:#ccc;}</style></defs><title>twostacked</title><g id="Layer_2" data-name="Layer 2"><g id="Layer_1-2" data-name="Layer 1"><path d="M3,14.71H1.87v-10H7.45v1H3V9.41H7.18v1H3Z"/><path d="M8.83,5.19A.75.75,0,0,1,9,4.62a.71.71,0,0,1,1,0,.74.74,0,0,1,.2.57.75.75,0,0,1-.2.57A.66.66,0,0,1,9.5,6,.65.65,0,0,1,9,5.76.77.77,0,0,1,8.83,5.19Zm1.23,9.52H8.93V7.22h1.13Z"/><path d="M15.89,7.09a4.45,4.45,0,0,1,.9.08l-.16,1.05a3.88,3.88,0,0,0-.82-.1,2,2,0,0,0-1.56.74,2.69,2.69,0,0,0-.65,1.84v4H12.47V7.22h.94l.13,1.39h.05a3.27,3.27,0,0,1,1-1.13A2.26,2.26,0,0,1,15.89,7.09Z"/><path d="M23,12.67a1.88,1.88,0,0,1-.78,1.61,3.66,3.66,0,0,1-2.19.57,4.75,4.75,0,0,1-2.32-.47V13.33a5.63,5.63,0,0,0,1.16.43,4.86,4.86,0,0,0,1.19.16,2.7,2.7,0,0,0,1.37-.28,1,1,0,0,0,.1-1.61,6,6,0,0,0-1.48-.73,8,8,0,0,1-1.49-.68,2,2,0,0,1-.66-.66,1.72,1.72,0,0,1-.21-.88,1.68,1.68,0,0,1,.75-1.45,3.47,3.47,0,0,1,2-.53,6,6,0,0,1,2.37.49l-.4.92a5.44,5.44,0,0,0-2-.46,2.35,2.35,0,0,0-1.22.25.78.78,0,0,0-.41.7.85.85,0,0,0,.15.51,1.51,1.51,0,0,0,.5.4,11.13,11.13,0,0,0,1.31.55,4.9,4.9,0,0,1,1.8,1A1.72,1.72,0,0,1,23,12.67Z"/><path d="M27.28,13.91a3.64,3.64,0,0,0,.58,0l.44-.09v.87a2.12,2.12,0,0,1-.54.15,4,4,0,0,1-.65.06q-2.17,0-2.17-2.29V8.1H23.87V7.56l1.07-.47.48-1.6h.66V7.22h2.17V8.1H26.08v4.41a1.51,1.51,0,0,0,.32,1A1.12,1.12,0,0,0,27.28,13.91Z"/><path d="M38.57,14.71V9.87a2,2,0,0,0-.42-1.37A1.7,1.7,0,0,0,36.85,8a2.15,2.15,0,0,0-1.72.64,3.2,3.2,0,0,0-.55,2.1v3.93H33.44V7.22h.92l.18,1h.05a2.31,2.31,0,0,1,1-.86,3.18,3.18,0,0,1,1.4-.3,2.84,2.84,0,0,1,2,.65,2.78,2.78,0,0,1,.68,2.09v4.89Z"/><path d="M46.64,14.71l-.23-1.07h-.05a3.15,3.15,0,0,1-1.12,1,3.41,3.41,0,0,1-1.39.25,2.5,2.5,0,0,1-1.75-.57,2.1,2.1,0,0,1-.63-1.63q0-2.27,3.63-2.38l1.27,0V9.76A1.9,1.9,0,0,0,46,8.46,1.56,1.56,0,0,0,44.78,8a4.94,4.94,0,0,0-2.12.57l-.35-.87a5.42,5.42,0,0,1,2.54-.64,2.85,2.85,0,0,1,2,.59,2.48,2.48,0,0,1,.65,1.91v5.11Zm-2.56-.8a2.3,2.3,0,0,0,1.66-.58,2.15,2.15,0,0,0,.61-1.63V11l-1.13,0a4.13,4.13,0,0,0-2,.42,1.27,1.27,0,0,0-.6,1.16,1.17,1.17,0,0,0,.37.94A1.55,1.55,0,0,0,44.08,13.91Z"/><path d="M59.37,14.71V9.84A2,2,0,0,0,59,8.5,1.48,1.48,0,0,0,57.8,8a1.92,1.92,0,0,0-1.57.61,2.89,2.89,0,0,0-.51,1.87v4.18H54.59V9.84a2,2,0,0,0-.38-1.34A1.49,1.49,0,0,0,53,8a1.85,1.85,0,0,0-1.56.64,3.46,3.46,0,0,0-.5,2.09v3.93H49.82V7.22h.92l.18,1H51a2.22,2.22,0,0,1,.91-.86,2.77,2.77,0,0,1,1.31-.31,2.23,2.23,0,0,1,2.3,1.27h.05a2.38,2.38,0,0,1,1-.93A3,3,0,0,1,58,7.09a2.53,2.53,0,0,1,1.9.65,2.92,2.92,0,0,1,.63,2.09v4.89Z"/><path d="M66,14.85a3.45,3.45,0,0,1-2.62-1,3.92,3.92,0,0,1-1-2.81,4.34,4.34,0,0,1,.89-2.88,3,3,0,0,1,2.4-1.07A2.83,2.83,0,0,1,67.94,8a3.55,3.55,0,0,1,.82,2.44v.72H63.6a3,3,0,0,0,.67,2,2.31,2.31,0,0,0,1.78.68,6,6,0,0,0,2.39-.51v1a6,6,0,0,1-1.14.37A6.39,6.39,0,0,1,66,14.85ZM65.7,8a1.86,1.86,0,0,0-1.44.59,2.71,2.71,0,0,0-.63,1.63h3.92a2.5,2.5,0,0,0-.48-1.64A1.69,1.69,0,0,0,65.7,8Z"/><rect class="cls-1" x="0.5" y="21.71" width="285" height="36"/><path class="cls-2" d="M286,58.21H0v-37H286Zm-285-1H285v-35H1Z"/><path d="M337.15,71.69a3.27,3.27,0,0,0-2.6,1.1,4.43,4.43,0,0,0-1,3,4.52,4.52,0,0,0,.92,3,3.27,3.27,0,0,0,2.62,1.07,8.94,8.94,0,0,0,2.39-.38v1a7.35,7.35,0,0,1-2.56.39,4.34,4.34,0,0,1-3.41-1.34,5.51,5.51,0,0,1-1.2-3.81,6,6,0,0,1,.58-2.71,4.15,4.15,0,0,1,1.67-1.79,5,5,0,0,1,2.57-.63,6.2,6.2,0,0,1,2.75.57l-.49,1A5.3,5.3,0,0,0,337.15,71.69Z"/><path d="M341.44,71.27a.75.75,0,0,1,.19-.57.71.71,0,0,1,1,0,.74.74,0,0,1,.2.57.75.75,0,0,1-.2.57.67.67,0,0,1-.47.19.66.66,0,0,1-.48-.19A.77.77,0,0,1,341.44,71.27Zm1.23,9.52h-1.13V73.29h1.13Z"/><path d="M347.5,80a3.76,3.76,0,0,0,.58,0l.44-.09v.87a2,2,0,0,1-.54.15,4.15,4.15,0,0,1-.65.06q-2.17,0-2.17-2.29V74.18h-1.07v-.55l1.07-.47.48-1.6h.66v1.74h2.17v.88h-2.17v4.41a1.51,1.51,0,0,0,.32,1A1.12,1.12,0,0,0,347.5,80Z"/><path d="M348.83,73.29H350l1.64,4.27a16.39,16.39,0,0,1,.67,2.11h.05c.06-.23.18-.63.37-1.19s.81-2.29,1.86-5.19h1.22l-3.22,8.53a4.25,4.25,0,0,1-1.12,1.79,2.37,2.37,0,0,1-1.57.53,4.58,4.58,0,0,1-1-.12v-.91a4,4,0,0,0,.84.08,1.73,1.73,0,0,0,1.67-1.31l.42-1.07Z"/><rect class="cls-1" x="331.5" y="87.79" width="285" height="36"/><path class="cls-2" d="M617,124.29H331v-37H617Zm-285-1H616v-35H332Z"/><path d="M338.51,146.4a2.45,2.45,0,0,1-1,2.06,4.15,4.15,0,0,1-2.6.74,6.5,6.5,0,0,1-2.73-.46v-1.12a7.26,7.26,0,0,0,1.34.41,7,7,0,0,0,1.44.15,2.9,2.9,0,0,0,1.75-.44,1.45,1.45,0,0,0,.59-1.23,1.57,1.57,0,0,0-.21-.85,1.94,1.94,0,0,0-.7-.61,9.72,9.72,0,0,0-1.49-.64,4.73,4.73,0,0,1-2-1.18,2.61,2.61,0,0,1-.6-1.78,2.22,2.22,0,0,1,.87-1.84,3.61,3.61,0,0,1,2.3-.68,6.77,6.77,0,0,1,2.74.55l-.36,1a6.19,6.19,0,0,0-2.41-.52,2.33,2.33,0,0,0-1.44.4,1.31,1.31,0,0,0-.52,1.1,1.7,1.7,0,0,0,.19.85,1.79,1.79,0,0,0,.65.61,8,8,0,0,0,1.39.61,5.51,5.51,0,0,1,2.16,1.2A2.37,2.37,0,0,1,338.51,146.4Z"/><path d="M342.81,148.26a3.74,3.74,0,0,0,.58,0l.44-.09V149a2.07,2.07,0,0,1-.54.15,4.05,4.05,0,0,1-.65.06q-2.17,0-2.17-2.29v-4.46H339.4v-.55l1.07-.47.48-1.6h.66v1.74h2.17v.88H341.6v4.41a1.52,1.52,0,0,0,.32,1A1.12,1.12,0,0,0,342.81,148.26Z"/><path d="M349.94,149.06l-.23-1.07h-.05a3.15,3.15,0,0,1-1.12,1,3.4,3.4,0,0,1-1.39.25,2.5,2.5,0,0,1-1.75-.57,2.09,2.09,0,0,1-.63-1.63q0-2.27,3.63-2.38l1.27,0v-.46a1.9,1.9,0,0,0-.38-1.3,1.56,1.56,0,0,0-1.21-.42A5,5,0,0,0,346,143l-.35-.87a5.31,5.31,0,0,1,1.21-.47,5.24,5.24,0,0,1,1.32-.17,2.85,2.85,0,0,1,2,.59,2.48,2.48,0,0,1,.65,1.91v5.11Zm-2.56-.8a2.31,2.31,0,0,0,1.67-.58,2.15,2.15,0,0,0,.6-1.63v-.68l-1.13,0a4.12,4.12,0,0,0-2,.42A1.27,1.27,0,0,0,346,147a1.17,1.17,0,0,0,.37.94A1.54,1.54,0,0,0,347.37,148.26Z"/><path d="M355.54,148.26a3.74,3.74,0,0,0,.58,0l.44-.09V149a2.07,2.07,0,0,1-.54.15,4.05,4.05,0,0,1-.65.06q-2.17,0-2.17-2.29v-4.46h-1.07v-.55l1.07-.47.48-1.6h.66v1.74h2.17v.88h-2.17v4.41a1.52,1.52,0,0,0,.32,1A1.12,1.12,0,0,0,355.54,148.26Z"/><path d="M361.22,149.2a3.44,3.44,0,0,1-2.62-1,3.91,3.91,0,0,1-1-2.81,4.34,4.34,0,0,1,.89-2.88,3,3,0,0,1,2.4-1.07,2.83,2.83,0,0,1,2.23.93,3.55,3.55,0,0,1,.82,2.44v.72h-5.16a3,3,0,0,0,.67,2,2.3,2.3,0,0,0,1.78.68,6,6,0,0,0,2.39-.51v1a5.94,5.94,0,0,1-1.14.37A6.33,6.33,0,0,1,361.22,149.2Zm-.31-6.82a1.85,1.85,0,0,0-1.44.59,2.71,2.71,0,0,0-.63,1.63h3.92a2.49,2.49,0,0,0-.48-1.64A1.68,1.68,0,0,0,360.92,142.38Z"/><rect class="cls-1" x="331.5" y="156.06" width="100" height="36"/><path class="cls-2" d="M432,192.56H331v-37H432Zm-100-1h99v-35H332Z"/><path d="M338.93,217.76h-6.87v-.91l5.3-8h-5.14v-1h6.56v.91l-5.3,8h5.46Z"/><path d="M340.6,208.23a.76.76,0,0,1,.19-.57.71.71,0,0,1,1,0,.74.74,0,0,1,.2.57.75.75,0,0,1-.2.57.69.69,0,0,1-1,0A.77.77,0,0,1,340.6,208.23Zm1.23,9.52h-1.13v-7.49h1.13Z"/><path d="M347.72,217.89a3.23,3.23,0,0,1-1.34-.27,2.52,2.52,0,0,1-1-.83h-.08a10.05,10.05,0,0,1,.08,1.24v3.08h-1.13V210.27h.92l.16,1h.05a2.64,2.64,0,0,1,1-.89,3.09,3.09,0,0,1,1.33-.27,2.77,2.77,0,0,1,2.3,1,5.43,5.43,0,0,1,0,5.73A2.78,2.78,0,0,1,347.72,217.89Zm-.16-6.8a2,2,0,0,0-1.66.64,3.27,3.27,0,0,0-.53,2V214a3.75,3.75,0,0,0,.53,2.26,2,2,0,0,0,1.69.68,1.76,1.76,0,0,0,1.52-.79,3.74,3.74,0,0,0,.55-2.17,3.59,3.59,0,0,0-.55-2.15A1.81,1.81,0,0,0,347.56,211.09Z"/><rect class="cls-1" x="331.5" y="224.76" width="100" height="36"/><path class="cls-2" d="M432,261.26H331v-37H432Zm-100-1h99v-35H332Z"/><path d="M4.42,147.26l2.67-5H8.34L5,148.38v3.88H3.83v-3.82L.5,142.27H1.77Z"/><path d="M16,148.51a4.13,4.13,0,0,1-.92,2.86,3.25,3.25,0,0,1-2.55,1,3.38,3.38,0,0,1-1.78-.47,3.12,3.12,0,0,1-1.2-1.35,4.71,4.71,0,0,1-.42-2.06,4.12,4.12,0,0,1,.92-2.85,3.24,3.24,0,0,1,2.54-1,3.17,3.17,0,0,1,2.5,1A4.11,4.11,0,0,1,16,148.51Zm-5.71,0a3.56,3.56,0,0,0,.57,2.19,2,2,0,0,0,1.69.75,2,2,0,0,0,1.69-.75,3.54,3.54,0,0,0,.58-2.19,3.48,3.48,0,0,0-.58-2.17,2,2,0,0,0-1.71-.74,2,2,0,0,0-1.68.73A3.52,3.52,0,0,0,10.3,148.51Z"/><path d="M19.07,144.77v4.86a2,2,0,0,0,.42,1.37,1.7,1.7,0,0,0,1.31.45,2.13,2.13,0,0,0,1.72-.64,3.23,3.23,0,0,0,.54-2.1v-3.94h1.13v7.49h-.94l-.16-1H23a2.26,2.26,0,0,1-1,.85,3.24,3.24,0,0,1-1.41.29,2.86,2.86,0,0,1-2-.65,2.76,2.76,0,0,1-.68-2.08v-4.9Z"/><path d="M30,144.63a4.43,4.43,0,0,1,.9.08l-.16,1.05a3.86,3.86,0,0,0-.82-.1,2,2,0,0,0-1.56.74,2.7,2.7,0,0,0-.65,1.84v4H26.59v-7.49h.94l.13,1.39h.05a3.3,3.3,0,0,1,1-1.13A2.27,2.27,0,0,1,30,144.63Z"/><path d="M39.43,152.4a3.25,3.25,0,0,1-1.34-.27,2.52,2.52,0,0,1-1-.83H37a10.05,10.05,0,0,1,.08,1.24v3.08H35.94V144.77h.92l.16,1h.05a2.64,2.64,0,0,1,1-.89,3.1,3.1,0,0,1,1.33-.27,2.77,2.77,0,0,1,2.3,1,5.42,5.42,0,0,1,0,5.73A2.77,2.77,0,0,1,39.43,152.4Zm-.16-6.8a2,2,0,0,0-1.66.64,3.27,3.27,0,0,0-.53,2v.25a3.75,3.75,0,0,0,.53,2.26,2,2,0,0,0,1.69.68,1.75,1.75,0,0,0,1.52-.79,3.72,3.72,0,0,0,.55-2.17,3.59,3.59,0,0,0-.55-2.15A1.81,1.81,0,0,0,39.27,145.59Z"/><path d="M49.65,152.26v-4.85a2,2,0,0,0-.42-1.37,1.7,1.7,0,0,0-1.31-.45,2.14,2.14,0,0,0-1.73.64,3.26,3.26,0,0,0-.54,2.11v3.92H44.52V141.62h1.13v3.22a6.91,6.91,0,0,1-.05,1h.07a2.31,2.31,0,0,1,1-.85,3.09,3.09,0,0,1,1.41-.31,2.89,2.89,0,0,1,2.06.65,2.74,2.74,0,0,1,.69,2.07v4.89Z"/><path d="M59.58,148.51a4.13,4.13,0,0,1-.92,2.86,3.25,3.25,0,0,1-2.55,1,3.38,3.38,0,0,1-1.78-.47,3.12,3.12,0,0,1-1.2-1.35,4.71,4.71,0,0,1-.42-2.06,4.12,4.12,0,0,1,.92-2.85,3.24,3.24,0,0,1,2.54-1,3.17,3.17,0,0,1,2.5,1A4.11,4.11,0,0,1,59.58,148.51Zm-5.71,0a3.56,3.56,0,0,0,.57,2.19,2.28,2.28,0,0,0,3.38,0,3.54,3.54,0,0,0,.58-2.19,3.48,3.48,0,0,0-.58-2.17,2,2,0,0,0-1.71-.74,2,2,0,0,0-1.68.73A3.52,3.52,0,0,0,53.88,148.51Z"/><path d="M66.7,152.26v-4.85a2,2,0,0,0-.42-1.37,1.7,1.7,0,0,0-1.31-.45,2.16,2.16,0,0,0-1.72.64,3.21,3.21,0,0,0-.55,2.1v3.93H61.57v-7.49h.92l.18,1h.05a2.31,2.31,0,0,1,1-.86,3.17,3.17,0,0,1,1.4-.3,2.84,2.84,0,0,1,2,.65,2.78,2.78,0,0,1,.68,2.09v4.89Z"/><path d="M73.33,152.4a3.44,3.44,0,0,1-2.62-1,3.91,3.91,0,0,1-1-2.81,4.34,4.34,0,0,1,.89-2.88,3,3,0,0,1,2.4-1.07,2.82,2.82,0,0,1,2.23.93,3.55,3.55,0,0,1,.82,2.44v.72H70.92a3,3,0,0,0,.67,2,2.31,2.31,0,0,0,1.78.68,6,6,0,0,0,2.39-.51v1a5.94,5.94,0,0,1-1.14.37A6.39,6.39,0,0,1,73.33,152.4ZM73,145.58a1.85,1.85,0,0,0-1.44.59A2.71,2.71,0,0,0,71,147.8h3.92a2.49,2.49,0,0,0-.48-1.64A1.68,1.68,0,0,0,73,145.58Z"/><path d="M86.78,152.26v-4.85a2,2,0,0,0-.42-1.37,1.7,1.7,0,0,0-1.31-.45,2.16,2.16,0,0,0-1.72.64,3.21,3.21,0,0,0-.55,2.1v3.93H81.66v-7.49h.92l.18,1h.05a2.31,2.31,0,0,1,1-.86,3.17,3.17,0,0,1,1.4-.3,2.84,2.84,0,0,1,2,.65,2.78,2.78,0,0,1,.68,2.09v4.89Z"/><path d="M91.32,144.77v4.86a2,2,0,0,0,.42,1.37,1.7,1.7,0,0,0,1.31.45,2.13,2.13,0,0,0,1.72-.64,3.25,3.25,0,0,0,.54-2.1v-3.94h1.13v7.49H95.5l-.16-1h-.06a2.26,2.26,0,0,1-1,.85,3.25,3.25,0,0,1-1.41.29,2.86,2.86,0,0,1-2-.65,2.76,2.76,0,0,1-.68-2.08v-4.9Z"/><path d="M108.39,152.26v-4.87A2,2,0,0,0,108,146a1.48,1.48,0,0,0-1.19-.45,1.92,1.92,0,0,0-1.57.61,2.89,2.89,0,0,0-.51,1.87v4.18h-1.13v-4.87a2,2,0,0,0-.38-1.34,1.49,1.49,0,0,0-1.2-.45,1.85,1.85,0,0,0-1.56.64,3.45,3.45,0,0,0-.5,2.09v3.93H98.84v-7.49h.92l.18,1H100a2.23,2.23,0,0,1,.91-.85,2.76,2.76,0,0,1,1.31-.31,2.22,2.22,0,0,1,2.3,1.27h.05a2.39,2.39,0,0,1,1-.93,3,3,0,0,1,1.45-.34,2.54,2.54,0,0,1,1.9.65,2.92,2.92,0,0,1,.63,2.09v4.89Z"/><path d="M115.35,144.64a2.79,2.79,0,0,1,2.29,1,5.4,5.4,0,0,1,0,5.72,2.77,2.77,0,0,1-2.29,1,3.25,3.25,0,0,1-1.34-.27,2.52,2.52,0,0,1-1-.83h-.08l-.24,1h-.81V141.62H113v2.58q0,.87-.05,1.56H113A2.69,2.69,0,0,1,115.35,144.64Zm-.16,1a2,2,0,0,0-1.67.67,5.14,5.14,0,0,0,0,4.5,2,2,0,0,0,1.69.68,1.75,1.75,0,0,0,1.56-.76,3.92,3.92,0,0,0,.51-2.19,3.77,3.77,0,0,0-.51-2.18A1.82,1.82,0,0,0,115.19,145.59Z"/><path d="M123.61,152.4a3.44,3.44,0,0,1-2.62-1,3.92,3.92,0,0,1-1-2.81,4.35,4.35,0,0,1,.89-2.88,3,3,0,0,1,2.4-1.07,2.82,2.82,0,0,1,2.23.93,3.55,3.55,0,0,1,.82,2.44v.72H121.2a3,3,0,0,0,.67,2,2.3,2.3,0,0,0,1.78.68,6,6,0,0,0,2.39-.51v1a6,6,0,0,1-1.14.37A6.41,6.41,0,0,1,123.61,152.4Zm-.31-6.82a1.86,1.86,0,0,0-1.44.59,2.71,2.71,0,0,0-.63,1.63h3.92a2.5,2.5,0,0,0-.48-1.64A1.68,1.68,0,0,0,123.3,145.58Z"/><path d="M131.72,144.63a4.43,4.43,0,0,1,.9.08l-.16,1.05a3.86,3.86,0,0,0-.82-.1,2,2,0,0,0-1.56.74,2.7,2.7,0,0,0-.65,1.84v4H128.3v-7.49h.94l.13,1.39h.05a3.3,3.3,0,0,1,1-1.13A2.27,2.27,0,0,1,131.72,144.63Z"/><rect class="cls-1" x="0.5" y="90.26" width="285" height="36"/><path class="cls-2" d="M286,126.76H0v-37H286Zm-285-1H285v-35H1Z"/><path d="M339.16,12.45l-1.24-3.18h-4l-1.23,3.18H331.5l4-10h1l3.93,10Zm-1.61-4.22-1.16-3.1q-.23-.59-.46-1.44a13.05,13.05,0,0,1-.43,1.44l-1.18,3.1Z"/><path d="M346.66,11.45h-.06a2.67,2.67,0,0,1-2.35,1.14,2.78,2.78,0,0,1-2.29-1,4.43,4.43,0,0,1-.82-2.86A4.5,4.5,0,0,1,342,5.85a2.76,2.76,0,0,1,2.28-1,2.73,2.73,0,0,1,2.34,1.11h.09l0-.54,0-.53v-3h1.13V12.45h-.92Zm-2.27.19a2.07,2.07,0,0,0,1.68-.63,3.2,3.2,0,0,0,.52-2V8.73a3.76,3.76,0,0,0-.53-2.27,2,2,0,0,0-1.69-.68,1.74,1.74,0,0,0-1.53.78,3.86,3.86,0,0,0-.53,2.19,3.69,3.69,0,0,0,.53,2.17A1.78,1.78,0,0,0,344.39,11.64Z"/><path d="M355.24,11.45h-.06a2.67,2.67,0,0,1-2.35,1.14,2.78,2.78,0,0,1-2.29-1,4.43,4.43,0,0,1-.82-2.86,4.5,4.5,0,0,1,.82-2.88,2.76,2.76,0,0,1,2.28-1,2.73,2.73,0,0,1,2.34,1.11h.09l0-.54,0-.53v-3h1.13V12.45h-.92Zm-2.27.19a2.07,2.07,0,0,0,1.68-.63,3.2,3.2,0,0,0,.52-2V8.73a3.76,3.76,0,0,0-.53-2.27A2,2,0,0,0,353,5.78a1.74,1.74,0,0,0-1.53.78,3.86,3.86,0,0,0-.53,2.19,3.69,3.69,0,0,0,.53,2.17A1.78,1.78,0,0,0,353,11.64Z"/><path d="M362.14,4.83a4.45,4.45,0,0,1,.9.08L362.88,6a3.88,3.88,0,0,0-.82-.1,2,2,0,0,0-1.56.74,2.69,2.69,0,0,0-.65,1.84v4h-1.13V5h.94l.13,1.39h.05a3.29,3.29,0,0,1,1-1.13A2.27,2.27,0,0,1,362.14,4.83Z"/><path d="M367.6,12.59a3.44,3.44,0,0,1-2.62-1,3.92,3.92,0,0,1-1-2.81,4.34,4.34,0,0,1,.89-2.88,3,3,0,0,1,2.4-1.07,2.82,2.82,0,0,1,2.23.93,3.55,3.55,0,0,1,.82,2.44v.72h-5.16a3,3,0,0,0,.67,2,2.31,2.31,0,0,0,1.78.68,6,6,0,0,0,2.39-.51v1a6,6,0,0,1-1.14.37A6.39,6.39,0,0,1,367.6,12.59Zm-.31-6.82a1.86,1.86,0,0,0-1.44.59A2.71,2.71,0,0,0,365.22,8h3.92a2.5,2.5,0,0,0-.48-1.64A1.68,1.68,0,0,0,367.29,5.78Z"/><path d="M377.12,10.41a1.88,1.88,0,0,1-.78,1.61,3.66,3.66,0,0,1-2.19.57,4.75,4.75,0,0,1-2.32-.47V11.07a5.57,5.57,0,0,0,1.16.43,4.82,4.82,0,0,0,1.19.16,2.71,2.71,0,0,0,1.37-.28,1,1,0,0,0,.1-1.61A6,6,0,0,0,374.17,9a8.06,8.06,0,0,1-1.49-.68,2,2,0,0,1-.66-.66,1.72,1.72,0,0,1-.21-.88,1.68,1.68,0,0,1,.75-1.45,3.47,3.47,0,0,1,2-.53,6,6,0,0,1,2.37.49l-.4.92a5.44,5.44,0,0,0-2-.46A2.36,2.36,0,0,0,373.3,6a.78.78,0,0,0-.41.7.85.85,0,0,0,.15.51,1.5,1.5,0,0,0,.5.4,10.91,10.91,0,0,0,1.31.55,4.9,4.9,0,0,1,1.8,1A1.72,1.72,0,0,1,377.12,10.41Z"/><path d="M383.8,10.41A1.88,1.88,0,0,1,383,12a3.66,3.66,0,0,1-2.19.57,4.75,4.75,0,0,1-2.32-.47V11.07a5.57,5.57,0,0,0,1.16.43,4.82,4.82,0,0,0,1.19.16,2.71,2.71,0,0,0,1.37-.28,1,1,0,0,0,.1-1.61A6,6,0,0,0,380.85,9a8.06,8.06,0,0,1-1.49-.68,2,2,0,0,1-.66-.66,1.72,1.72,0,0,1-.21-.88,1.68,1.68,0,0,1,.75-1.45,3.47,3.47,0,0,1,2-.53,6,6,0,0,1,2.37.49l-.4.92a5.44,5.44,0,0,0-2-.46A2.36,2.36,0,0,0,380,6a.78.78,0,0,0-.41.7.85.85,0,0,0,.15.51,1.5,1.5,0,0,0,.5.4,10.91,10.91,0,0,0,1.31.55,4.9,4.9,0,0,1,1.8,1A1.72,1.72,0,0,1,383.8,10.41Z"/><rect class="cls-1" x="331.5" y="19.45" width="285" height="36"/><path class="cls-2" d="M617,56H331V19H617ZM332,55H616V20H332Z"/><path d="M1.87,83.41v-10H3v8.94H7.45v1.05Z"/><path d="M13.58,83.41l-.23-1.07H13.3a3.15,3.15,0,0,1-1.12,1,3.41,3.41,0,0,1-1.39.25A2.5,2.5,0,0,1,9,83a2.1,2.1,0,0,1-.63-1.63Q8.41,79.07,12,79l1.27,0v-.46a1.9,1.9,0,0,0-.38-1.3,1.56,1.56,0,0,0-1.21-.42,4.94,4.94,0,0,0-2.12.57l-.35-.87a5.42,5.42,0,0,1,2.54-.64,2.85,2.85,0,0,1,2,.59,2.48,2.48,0,0,1,.65,1.91v5.11ZM11,82.61A2.3,2.3,0,0,0,12.68,82a2.15,2.15,0,0,0,.61-1.63v-.68l-1.13,0a4.13,4.13,0,0,0-2,.42,1.27,1.27,0,0,0-.6,1.16,1.17,1.17,0,0,0,.37.94A1.55,1.55,0,0,0,11,82.61Z"/><path d="M21.59,81.37A1.88,1.88,0,0,1,20.81,83a3.66,3.66,0,0,1-2.19.57,4.75,4.75,0,0,1-2.32-.47V82a5.63,5.63,0,0,0,1.16.43,4.86,4.86,0,0,0,1.19.16A2.7,2.7,0,0,0,20,82.33a1,1,0,0,0,.1-1.61A6,6,0,0,0,18.64,80a8,8,0,0,1-1.49-.68,2,2,0,0,1-.66-.66,1.72,1.72,0,0,1-.21-.88A1.68,1.68,0,0,1,17,76.31a3.47,3.47,0,0,1,2-.53,6,6,0,0,1,2.37.49l-.4.92a5.44,5.44,0,0,0-2-.46,2.35,2.35,0,0,0-1.22.25.78.78,0,0,0-.41.7.85.85,0,0,0,.15.51,1.51,1.51,0,0,0,.5.4,11.13,11.13,0,0,0,1.31.55,4.9,4.9,0,0,1,1.8,1A1.72,1.72,0,0,1,21.59,81.37Z"/><path d="M25.85,82.61a3.64,3.64,0,0,0,.58,0l.44-.09v.87a2.12,2.12,0,0,1-.54.15,4,4,0,0,1-.65.06q-2.17,0-2.17-2.29V76.8H22.44v-.55l1.07-.47.48-1.6h.66v1.74h2.17v.88H24.65v4.41a1.51,1.51,0,0,0,.32,1A1.12,1.12,0,0,0,25.85,82.61Z"/><path d="M37.14,83.41V78.56a2,2,0,0,0-.42-1.37,1.7,1.7,0,0,0-1.31-.45,2.15,2.15,0,0,0-1.72.64,3.2,3.2,0,0,0-.55,2.1v3.93H32V75.92h.92l.18,1h.05a2.31,2.31,0,0,1,1-.86,3.18,3.18,0,0,1,1.4-.3,2.84,2.84,0,0,1,2,.65,2.78,2.78,0,0,1,.68,2.09v4.89Z"/><path d="M45.21,83.41,45,82.35h-.05a3.15,3.15,0,0,1-1.12,1,3.41,3.41,0,0,1-1.39.25A2.5,2.5,0,0,1,40.68,83,2.1,2.1,0,0,1,40,81.34q0-2.27,3.63-2.38l1.27,0v-.46a1.9,1.9,0,0,0-.38-1.3,1.56,1.56,0,0,0-1.21-.42,4.94,4.94,0,0,0-2.12.57l-.35-.87a5.42,5.42,0,0,1,2.54-.64,2.85,2.85,0,0,1,2,.59,2.48,2.48,0,0,1,.65,1.91v5.11Zm-2.56-.8A2.3,2.3,0,0,0,44.31,82a2.15,2.15,0,0,0,.61-1.63v-.68l-1.13,0a4.13,4.13,0,0,0-2,.42,1.27,1.27,0,0,0-.6,1.16,1.17,1.17,0,0,0,.37.94A1.55,1.55,0,0,0,42.65,82.61Z"/><path d="M57.94,83.41V78.54a2,2,0,0,0-.38-1.34,1.48,1.48,0,0,0-1.19-.45,1.92,1.92,0,0,0-1.57.61,2.89,2.89,0,0,0-.51,1.87v4.18H53.16V78.54a2,2,0,0,0-.38-1.34,1.49,1.49,0,0,0-1.2-.45,1.85,1.85,0,0,0-1.56.64,3.46,3.46,0,0,0-.5,2.09v3.93H48.39V75.92h.92l.18,1h.05a2.22,2.22,0,0,1,.91-.86,2.77,2.77,0,0,1,1.31-.31,2.23,2.23,0,0,1,2.3,1.27h.05a2.38,2.38,0,0,1,1-.93,3,3,0,0,1,1.45-.34,2.53,2.53,0,0,1,1.9.65,2.92,2.92,0,0,1,.63,2.09v4.89Z"/><path d="M64.58,83.55a3.45,3.45,0,0,1-2.62-1,3.92,3.92,0,0,1-1-2.81,4.34,4.34,0,0,1,.89-2.88,3,3,0,0,1,2.4-1.07,2.83,2.83,0,0,1,2.23.93,3.55,3.55,0,0,1,.82,2.44v.72H62.17a3,3,0,0,0,.67,2,2.31,2.31,0,0,0,1.78.68A6,6,0,0,0,67,82.05v1a6,6,0,0,1-1.14.37A6.39,6.39,0,0,1,64.58,83.55Zm-.31-6.82a1.86,1.86,0,0,0-1.44.59,2.71,2.71,0,0,0-.63,1.63h3.92a2.5,2.5,0,0,0-.48-1.64A1.69,1.69,0,0,0,64.27,76.73Z"/><rect class="cls-1" x="0.5" y="159.41" width="285" height="36"/><path class="cls-2" d="M286,195.91H0v-37H286Zm-285-1H285v-35H1Z"/><rect class="cls-2" x="304.32" width="1" height="260.76"/></g></g></svg>